<?xml version="1.0" encoding="UTF-8"?>
<svg version="1.1" xmlns="http://www.w3.org/2000/svg" width="87" height="95">
<path d="M0 0 C28.71 0 57.42 0 87 0 C87 31.35 87 62.7 87 95 C58.29 95 29.58 95 0 95 C0 63.65 0 32.3 0 0 Z " fill="#FBFBFC" transform="translate(0,0)"/>
<path d="M0 0 C1.67542976 0.28604898 3.34385343 0.61781233 5 1 C5.42589023 6.53657294 3.905247 10.89665983 2 16 C3.3921875 16.0928125 3.3921875 16.0928125 4.8125 16.1875 C8 17 8 17 9.875 19.5625 C10.24625 20.366875 10.6175 21.17125 11 22 C12.11375 20.9790625 12.11375 20.9790625 13.25 19.9375 C16 18 16 18 18.3125 18.25 C18.869375 18.4975 19.42625 18.745 20 19 C19.071875 19.433125 18.14375 19.86625 17.1875 20.3125 C14.3892136 21.79394574 12.9234222 22.59978582 11 25 C10.17502326 27.55742298 10.17502326 27.55742298 9.625 30.375 C8.73060005 34.02472882 8.09827242 36.42755828 5.25 38.9375 C4.13625 39.9584375 4.13625 39.9584375 3 41 C3.07606836 43.13803054 3.07606836 43.13803054 4 45 C4 46.8542837 3.98271299 48.70876759 3.9375 50.5625 C3.82781247 53.00907507 3.82781247 53.00907507 5 55 C4.6875 57.5625 4.6875 57.5625 4 60 C3.01 60.495 3.01 60.495 2 61 C1.87625 62.5159375 1.87625 62.5159375 1.75 64.0625 C1.18422128 69.31771388 -2.35116667 73.35116667 -6 77 C-8.81556784 77.07230993 -11.61792211 76.99623631 -14.43359375 76.9375 C-16.98987685 76.81772784 -16.98987685 76.81772784 -19 78 C-19.33 77.01 -19.66 76.02 -20 75 C-21.175625 74.5359375 -21.175625 74.5359375 -22.375 74.0625 C-25.43949262 72.82211013 -26.37475608 71.84417686 -28 69 C-28.6875 66.25 -28.6875 66.25 -29 64 C-28.34 64 -27.68 64 -27 64 C-27.061875 62.9275 -27.12375 61.855 -27.1875 60.75 C-27.19778237 54.94046257 -25.50417256 49.56910718 -24 44 C-22.11887656 36.59813329 -22.11887656 36.59813329 -22 29 C-23.83333333 25.83333333 -23.83333333 25.83333333 -27 24 C-25.35 24.33 -23.7 24.66 -22 25 C-21.67 25.99 -21.34 26.98 -21 28 C-20.34 28 -19.68 28 -19 28 C-18.91363281 27.41992188 -18.82726563 26.83984375 -18.73828125 26.2421875 C-17.70049601 20.47248242 -16.49214125 16.89318908 -12 13 C-8.4956772 12.58423289 -6.17878694 12.41060653 -3 14 C-2.86722656 13.07316406 -2.73445313 12.14632813 -2.59765625 11.19140625 C-2.42105469 9.99386719 -2.24445312 8.79632813 -2.0625 7.5625 C-1.80146484 5.77005859 -1.80146484 5.77005859 -1.53515625 3.94140625 C-1 1 -1 1 0 0 Z " fill="#F5F6F8" transform="translate(53,9)"/>
<path d="M0 0 C1.67542976 0.28604898 3.34385343 0.61781233 5 1 C5.42589023 6.53657294 3.905247 10.89665983 2 16 C3.3921875 16.0928125 3.3921875 16.0928125 4.8125 16.1875 C8 17 8 17 9.875 19.5625 C10.24625 20.366875 10.6175 21.17125 11 22 C12.11375 20.9790625 12.11375 20.9790625 13.25 19.9375 C16 18 16 18 18.3125 18.25 C18.869375 18.4975 19.42625 18.745 20 19 C19.071875 19.433125 18.14375 19.86625 17.1875 20.3125 C14.3892136 21.79394574 12.9234222 22.59978582 11 25 C10.17502326 27.55742298 10.17502326 27.55742298 9.625 30.375 C8.73060005 34.02472882 8.09827242 36.42755828 5.25 38.9375 C4.13625 39.9584375 4.13625 39.9584375 3 41 C3.07606836 43.13803054 3.07606836 43.13803054 4 45 C4 46.8542837 3.98271299 48.70876759 3.9375 50.5625 C3.82781247 53.00907507 3.82781247 53.00907507 5 55 C4.6875 57.5625 4.6875 57.5625 4 60 C3.01 60.495 3.01 60.495 2 61 C1.87625 62.5159375 1.87625 62.5159375 1.75 64.0625 C1.18422128 69.31771388 -2.35116667 73.35116667 -6 77 C-8.81556784 77.07230993 -11.61792211 76.99623631 -14.43359375 76.9375 C-16.98987685 76.81772784 -16.98987685 76.81772784 -19 78 C-19.33 77.01 -19.66 76.02 -20 75 C-21.175625 74.5359375 -21.175625 74.5359375 -22.375 74.0625 C-25.43949262 72.82211013 -26.37475608 71.84417686 -28 69 C-28.6875 66.25 -28.6875 66.25 -29 64 C-28.34 64 -27.68 64 -27 64 C-27.061875 62.9275 -27.12375 61.855 -27.1875 60.75 C-27.19778237 54.94046257 -25.50417256 49.56910718 -24 44 C-22.11887656 36.59813329 -22.11887656 36.59813329 -22 29 C-23.83333333 25.83333333 -23.83333333 25.83333333 -27 24 C-25.35 24.33 -23.7 24.66 -22 25 C-21.67 25.99 -21.34 26.98 -21 28 C-20.34 28 -19.68 28 -19 28 C-18.91363281 27.41992188 -18.82726563 26.83984375 -18.73828125 26.2421875 C-17.70049601 20.47248242 -16.49214125 16.89318908 -12 13 C-8.4956772 12.58423289 -6.17878694 12.41060653 -3 14 C-2.86722656 13.07316406 -2.73445313 12.14632813 -2.59765625 11.19140625 C-2.42105469 9.99386719 -2.24445312 8.79632813 -2.0625 7.5625 C-1.80146484 5.77005859 -1.80146484 5.77005859 -1.53515625 3.94140625 C-1 1 -1 1 0 0 Z M-14.0625 20.11157227 C-15.82595655 23.6637432 -16.91390096 27.38319598 -18 31.1875 C-18.25346191 32.05592529 -18.50692383 32.92435059 -18.76806641 33.8190918 C-20.51259112 39.93818625 -22.03484891 46.09274547 -23.375 52.3125 C-23.54257812 53.08166748 -23.71015625 53.85083496 -23.8828125 54.64331055 C-25.7317666 62.74053495 -25.7317666 62.74053495 -23.5 70.3125 C-19.37652488 73.09584571 -15.08790706 73.66783297 -10.25 74.4375 C-6.78344071 73.7634468 -5.97215079 71.87978837 -4 69 C-2.7068 66.18889756 -1.70996432 63.31462271 -0.75 60.375 C-0.34998779 59.17556763 -0.34998779 59.17556763 0.05810547 57.9519043 C1.76551091 52.53819308 2.33711675 47.92354565 1.94921875 42.234375 C2.01715948 39.24498267 3.36974714 37.38102709 5.04296875 34.96875 C7.1093514 30.71790569 6.84716734 25.65375452 7 21 C2.37743712 17.59111494 2.37743712 17.59111494 -3 16 C-3.93199219 15.87044922 -3.93199219 15.87044922 -4.8828125 15.73828125 C-5.58148438 15.68027344 -6.28015625 15.62226563 -7 15.5625 C-7.99 15.47162109 -7.99 15.47162109 -9 15.37890625 C-11.6748723 16.20957949 -12.64939583 17.76801352 -14.0625 20.11157227 Z " fill="#4C70B6" transform="translate(53,9)"/>
<path d="M0 0 C1.4234304 4.64987264 2.61765316 9.12507777 3 14 C2.34 14.66 1.68 15.32 1 16 C-1.4375 15.625 -1.4375 15.625 -4 15 C-4.99 15 -5.98 15 -7 15 C-9.37555161 17.37555161 -9.36834858 18.30296994 -9.6875 21.5625 C-9.77386719 22.36816406 -9.86023438 23.17382812 -9.94921875 24.00390625 C-9.96597656 24.66261719 -9.98273438 25.32132813 -10 26 C-9.67 26.33 -9.34 26.66 -9 27 C-8.05508708 31.81340257 -7.17837325 36.31939984 -9.375 40.8125 C-13.0457735 43.87147792 -16.94520079 46.47874665 -21 49 C-22.12597277 45.2307862 -21.69976554 43.57845376 -20 40 C-19.608125 39.38125 -19.21625 38.7625 -18.8125 38.125 C-17.59342021 34.93663746 -18.3996887 32.30171218 -19 29 C-19 28.01 -19 27.02 -19 26 C-19.2475 25.38125 -19.495 24.7625 -19.75 24.125 C-20 22 -20 22 -18.1875 19.25 C-17.465625 18.5075 -16.74375 17.765 -16 17 C-15.34 17 -14.68 17 -14 17 C-13.896875 15.783125 -13.79375 14.56625 -13.6875 13.3125 C-13.02880568 8.19634002 -11.33532433 5.30018422 -7.625 1.6875 C-4.74524277 -0.16377251 -3.34856435 -0.38269307 0 0 Z " fill="#8F90AF" transform="translate(75,28)"/>
<path d="M0 0 C1.875 0.3125 1.875 0.3125 4 1 C6.74613052 5.11919578 6.36594883 8.09498977 5.44921875 12.8671875 C5.19785156 13.85976563 4.94648438 14.85234375 4.6875 15.875 C2.82828092 23.53321192 1.40306254 31.24832821 0 39 C-1.18142578 39.19916016 -1.18142578 39.19916016 -2.38671875 39.40234375 C-5.23469449 40.05367452 -6.17464166 40.79035569 -8 43 C-8.66 42.67 -9.32 42.34 -10 42 C-9.319375 41.484375 -8.63875 40.96875 -7.9375 40.4375 C-5.63911653 38.11633925 -5.63911653 38.11633925 -6.25 34.9375 C-6.37375 34.32777344 -6.4975 33.71804687 -6.625 33.08984375 C-8.27753158 23.88042295 -6.74189729 13.86001141 -4 5 C-1.890625 2.0546875 -1.890625 2.0546875 0 0 Z " fill="#E6E6ED" transform="translate(26,34)"/>
<path d="M0 0 C0.66 0 1.32 0 2 0 C2.97870458 4.45789771 2.90259016 7.61479546 1.78515625 12.02734375 C1.51123047 13.14947266 1.23730469 14.27160156 0.95507812 15.42773438 C0.66052734 16.58595703 0.36597656 17.74417969 0.0625 18.9375 C-3.50492893 29.91790526 -3.50492893 29.91790526 -2 40.8125 C2.21782476 43.31683345 8.14346397 44.83254903 13 44 C15.59887381 41.40112619 16.76344399 38.42430894 18 35 C19.485 35.495 19.485 35.495 21 36 C21.33 36.99 21.66 37.98 22 39 C20.8203125 41.0078125 20.8203125 41.0078125 19.125 43.125 C18.57070313 43.82882813 18.01640625 44.53265625 17.4453125 45.2578125 C16 47 16 47 15 48 C12.18443216 48.07230993 9.38207789 47.99623631 6.56640625 47.9375 C4.01012315 47.81772784 4.01012315 47.81772784 2 49 C1.505 47.515 1.505 47.515 1 46 C0.21625 45.690625 -0.5675 45.38125 -1.375 45.0625 C-4.43949262 43.82211013 -5.37475608 42.84417686 -7 40 C-7.6875 37.25 -7.6875 37.25 -8 35 C-7.34 35 -6.68 35 -6 35 C-6.061875 33.9275 -6.12375 32.855 -6.1875 31.75 C-6.1875 27.06036462 -5.07923061 22.89436478 -3.8671875 18.38671875 C-2.31240345 12.3146567 -1.18527643 6.15334997 0 0 Z " fill="#4469B1" transform="translate(32,38)"/>
<path d="M0 0 C-0.185625 0.804375 -0.37125 1.60875 -0.5625 2.4375 C-0.7790625 3.7059375 -0.7790625 3.7059375 -1 5 C-0.67 5.33 -0.34 5.66 0 6 C0.33 6.99 0.66 7.98 1 9 C-0.9375 11.6875 -0.9375 11.6875 -3 14 C-4.65 13.67 -6.3 13.34 -8 13 C-7.979375 12.030625 -7.95875 11.06125 -7.9375 10.0625 C-7.64381501 7.12534105 -7.64381501 7.12534105 -9 6 C-9.04063832 4.33382885 -9.042721 2.66611905 -9 1 C-5.64919071 -1.10976881 -3.77897651 -1.0497157 0 0 Z " fill="#F8F8FA" transform="translate(65,56)"/>
<path d="M0 0 C0.66 0 1.32 0 2 0 C2.97209347 4.44474228 2.90836555 7.62153459 1.8203125 12.02734375 C1.55089844 13.14947266 1.28148437 14.27160156 1.00390625 15.42773438 C0.71386719 16.58595703 0.42382812 17.74417969 0.125 18.9375 C-2.36492941 28.8880352 -2.36492941 28.8880352 -4 39 C-4.66 39 -5.32 39 -6 39 C-6.35076551 31.67289831 -5.83753353 25.31119165 -3.8671875 18.24609375 C-2.8503988 14.4400063 -2.06690072 10.61510568 -1.3125 6.75 C-1.06113281 5.46609375 -0.80976563 4.1821875 -0.55078125 2.859375 C-0.36902344 1.91578125 -0.18726563 0.9721875 0 0 Z " fill="#3665B7" transform="translate(32,38)"/>
<path d="M0 0 C0.8353125 0.37125 0.8353125 0.37125 1.6875 0.75 C1.05273852 4.14829621 -0.25089266 6.46539816 -2.1875 9.3125 C-2.70054688 10.07691406 -3.21359375 10.84132813 -3.7421875 11.62890625 C-5.1607455 13.54501817 -6.50170975 15.20142801 -8.3125 16.75 C-8.9725 16.75 -9.6325 16.75 -10.3125 16.75 C-10.75615036 8.02487631 -10.75615036 8.02487631 -7.3125 3.75 C-3.11787772 -0.33706786 -3.11787772 -0.33706786 0 0 Z " fill="#F8F9FA" transform="translate(72.3125,28.25)"/>
<path d="M0 0 C1.65 0.33 3.3 0.66 5 1 C5.40652968 6.42039575 4.03993514 10.07015675 2 15 C0.68 14.67 -0.64 14.34 -2 14 C-2.1799928 8.78020872 -1.97094808 4.92737019 0 0 Z " fill="#2C70D2" transform="translate(53,9)"/>
<path d="M0 0 C0.66 0 1.32 0 2 0 C3.4234304 4.64987264 4.61765316 9.12507777 5 14 C4.34 14.66 3.68 15.32 3 16 C-1.55555556 15.44444444 -1.55555556 15.44444444 -3 14 C-3.40959012 9.39211117 -2.83590591 7.54488239 0 4 C0 2.68 0 1.36 0 0 Z " fill="#BA253C" transform="translate(73,28)"/>
<path d="M0 0 C0.763125 0.0825 1.52625 0.165 2.3125 0.25 C3 2.5625 3 2.5625 3.3125 5.25 C2.1875 7.0625 2.1875 7.0625 0.3125 8.25 C-2.375 8.4375 -2.375 8.4375 -4.6875 8.25 C-5.375 6.5 -5.375 6.5 -5.6875 4.25 C-4.14687092 1.16874185 -3.48812938 0.32447715 0 0 Z " fill="#FBFBFC" transform="translate(60.6875,45.75)"/>
<path d="M0 0 C0.66 0 1.32 0 2 0 C2.19406478 1.64507218 2.38007935 3.29109594 2.5625 4.9375 C2.66691406 5.85402344 2.77132812 6.77054688 2.87890625 7.71484375 C2.91886719 8.46894531 2.95882812 9.22304688 3 10 C2 11 2 11 -0.5 11.125 C-3 11 -3 11 -4 10 C-4.49027921 6.46998971 -4.13576897 5.20365346 -2.125 2.1875 C-1.42375 1.465625 -0.7225 0.74375 0 0 Z " fill="#B72A41" transform="translate(47,37)"/>
<path d="M0 0 C0.33 0 0.66 0 1 0 C0.52013969 5.56890517 -0.29915181 10.67067568 -2 16 C-2.66 16 -3.32 16 -4 16 C-4 15.01 -4 14.02 -4 13 C-4.99 13 -5.98 13 -7 13 C-7.66 12.01 -8.32 11.02 -9 10 C-9.99 9.34 -10.98 8.68 -12 8 C-9.525 8.495 -9.525 8.495 -7 9 C-6.67 9.99 -6.34 10.98 -6 12 C-5.34 12 -4.68 12 -4 12 C-3.81824219 11.07767578 -3.81824219 11.07767578 -3.6328125 10.13671875 C-3.46523438 9.32847656 -3.29765625 8.52023438 -3.125 7.6875 C-2.96257813 6.88699219 -2.80015625 6.08648437 -2.6328125 5.26171875 C-2 3 -2 3 0 0 Z " fill="#5576B7" transform="translate(38,25)"/>
<path d="M0 0 C-1.07401108 2.91517292 -1.77810176 4.77810176 -4 7 C-6.625 6.625 -6.625 6.625 -9 6 C-9 4.35 -9 2.7 -9 1 C-2.25 -1.125 -2.25 -1.125 0 0 Z " fill="#EAEBF0" transform="translate(66,63)"/>
<path d="M0 0 C0.66 0 1.32 0 2 0 C3.76085911 5.92288974 2.17292144 11.38103575 0 17 C-0.66 17.33 -1.32 17.66 -2 18 C-2.2361959 11.59646678 -1.823321 6.15370839 0 0 Z " fill="#375FAD" transform="translate(32,38)"/>
<path d="M0 0 C2.28811367 1.78834148 2.95193763 2.62522798 3.328125 5.55859375 C3.30234375 6.50863281 3.2765625 7.45867188 3.25 8.4375 C3.23453125 9.38496094 3.2190625 10.33242188 3.203125 11.30859375 C2.86467391 15.79307065 2.86467391 15.79307065 2 18 C1.01 18.33 0.02 18.66 -1 19 C-0.9278125 17.87980469 -0.855625 16.75960937 -0.78125 15.60546875 C-0.68745044 14.13281566 -0.59370317 12.66015923 -0.5 11.1875 C-0.45230469 10.44951172 -0.40460937 9.71152344 -0.35546875 8.95117188 C-0.16609387 5.96175412 0 2.99625426 0 0 Z " fill="#2360C1" transform="translate(59,27)"/>
<path d="M0 0 C0 3 0 3 -0.625 5.5 C-1.32285229 8.24371063 -1.32285229 8.24371063 1 11 C0.67 11.33 0.34 11.66 0 12 C-0.04384447 13.66608987 -0.0396713 15.33380554 0 17 C0 17.99 0 18.98 0 20 C-0.66 20.66 -1.32 21.32 -2 22 C-2.75336689 17.76231122 -3.13457598 13.6178158 -3.25 9.3125 C-3.27578125 8.40113281 -3.3015625 7.48976563 -3.328125 6.55078125 C-2.94397067 3.56443863 -1.97732722 2.22189138 0 0 Z " fill="#5F6EA1" transform="translate(57,45)"/>
<path d="M0 0 C0.33 0.99 0.66 1.98 1 3 C2.87387216 3.80212628 2.87387216 3.80212628 5.0625 4.1875 C5.79597656 4.34605469 6.52945313 4.50460938 7.28515625 4.66796875 C7.85105469 4.77753906 8.41695312 4.88710938 9 5 C8.34 5.66 7.68 6.32 7 7 C3.375 6.625 3.375 6.625 0 6 C-1 3 -1 3 0 0 Z " fill="#2855AA" transform="translate(50,20)"/>
<path d="M0 0 C1.32 1.32 2.64 2.64 4 4 C2.02 5.32 0.04 6.64 -2 8 C-1.125 2.25 -1.125 2.25 0 0 Z " fill="#EBEBF0" transform="translate(55,68)"/>
<path d="M0 0 C0.625 1.875 0.625 1.875 1 4 C-1 6 -1 6 -4.625 6.125 C-5.73875 6.08375 -6.8525 6.0425 -8 6 C-8 5.67 -8 5.34 -8 5 C-7.05125 4.731875 -6.1025 4.46375 -5.125 4.1875 C-1.74732727 3.25013412 -1.74732727 3.25013412 0 0 Z " fill="#1E6AD5" transform="translate(49,79)"/>
</svg>
