<?xml version="1.0" encoding="UTF-8"?>
<svg version="1.1" xmlns="http://www.w3.org/2000/svg" width="93" height="93">
<path d="M0 0 C30.69 0 61.38 0 93 0 C93 30.69 93 61.38 93 93 C62.31 93 31.62 93 0 93 C0 62.31 0 31.62 0 0 Z " fill="#FCFBFC" transform="translate(0,0)"/>
<path d="M0 0 C0 0.66 0 1.32 0 2 C5.58891682 3.16290931 5.58891682 3.16290931 11 2 C11.33 1.01 11.66 0.02 12 -1 C17.33011539 -0.58195173 20.28284599 0.09222271 24 4 C26.31904773 7.18207235 28.57747351 10.31677789 30 14 C29.16015625 16.3125 29.16015625 16.3125 28 18 C26.02 18 24.04 18 22 18 C21.34 16.68 20.68 15.36 20 14 C19.67 15.32 19.34 16.64 19 18 C17.68 18 16.36 18 15 18 C15 18.66 15 19.32 15 20 C16.98 19.67 18.96 19.34 21 19 C24.44171655 26.2644803 26.67360912 31.91669061 26 40 C19.0216013 42.47091036 12.82493577 43.47270304 5.4375 43.375 C4.55642578 43.38660156 3.67535156 43.39820313 2.76757812 43.41015625 C-3.3202732 43.38319897 -8.35627017 42.26574979 -14 40 C-14.64149426 31.78382234 -12.86561558 26.26183499 -9 19 C-6.69 19 -4.38 19 -2 19 C-3.98 18.34 -5.96 17.68 -8 17 C-8 15.02 -8 13.04 -8 11 C-8.66 11 -9.32 11 -10 11 C-10 12.98 -10 14.96 -10 17 C-11.99954746 17.04254356 -14.00041636 17.04080783 -16 17 C-17 16 -17 16 -17.2265625 13.7265625 C-16.83010154 8.95535986 -14.02280814 5.58054723 -11 2 C-7.00482078 -0.77216517 -4.66003616 -1.50765876 0 0 Z " fill="#FDFDFE" transform="translate(43,36)"/>
<path d="M0 0 C3.70390021 2.02666238 5.65363011 3.48044516 8 7 C8.23046875 9.84765625 8.23046875 9.84765625 8.1875 13.0625 C8.18105469 14.12597656 8.17460938 15.18945312 8.16796875 16.28515625 C8 19 8 19 7 21 C6.34 21 5.68 21 5 21 C4.67 22.65 4.34 24.3 4 26 C5.051875 26.2475 6.10375 26.495 7.1875 26.75 C13.8616759 28.72008807 17.04292873 33.15033758 20.86328125 38.68359375 C22.1823171 41.3715259 22.37035263 43.04211701 22 46 C21.34 46.66 20.68 47.32 20 48 C19.95855667 50.20833754 20.0181763 52.41885836 20.125 54.625 C20.37816241 63.19138297 18.40369923 70.83386111 16 79 C15.01 78.505 15.01 78.505 14 78 C14 77.01 14 76.02 14 75 C13.071875 75.639375 12.14375 76.27875 11.1875 76.9375 C5.08526901 80.88600241 -0.9249664 80.47494438 -8 80 C-12.53535232 79.00789168 -16.13861489 77.57425674 -20 75 C-20.33 76.32 -20.66 77.64 -21 79 C-22.48320272 75.16112237 -23.22419163 72.93795909 -22 69 C-20.89398437 69.32484375 -19.78796875 69.6496875 -18.6484375 69.984375 C-13.62189419 71.23603515 -8.7822515 71.29484567 -3.625 71.25 C-2.30242188 71.26160156 -2.30242188 71.26160156 -0.953125 71.2734375 C5.23877375 71.25527944 10.97847653 70.42312183 17 69 C16.5949396 62.72156378 15.3730678 57.82701183 12.83984375 52.06640625 C12 50 12 50 12 48 C9.03 48.495 9.03 48.495 6 49 C6 48.34 6 47.68 6 47 C7.98 46.505 7.98 46.505 10 46 C10 44.02 10 42.04 10 40 C10.99 40.495 10.99 40.495 12 41 C12.625 43.5625 12.625 43.5625 13 46 C14.98 46 16.96 46 19 46 C20.36974612 43.02816443 20.36974612 43.02816443 18.8125 40.40625 C14.00392137 32.63026328 14.00392137 32.63026328 6 29 C5.01 29 4.02 29 3 29 C2.54625 29.474375 2.0925 29.94875 1.625 30.4375 C-0.5328819 32.51238645 -2.03937564 32.78336895 -5 33 C-7.70637529 32.02269781 -8.70256222 31.59487555 -10 29 C-11.6396875 29.2475 -11.6396875 29.2475 -13.3125 29.5 C-17 30 -17 30 -20 30 C-17.06171403 27.49701566 -14.82097239 26.53069061 -11 26 C-11.680625 25.29875 -12.36125 24.5975 -13.0625 23.875 C-16.0826013 19.37720627 -15.20986738 14.39275292 -14.6875 9.234375 C-13.75589571 4.85160028 -12.68949481 3.42966731 -9 1 C-5.89046621 -0.5547669 -3.43733239 -0.28644437 0 0 Z " fill="#B4B6CA" transform="translate(52,7)"/>
<path d="M0 0 C0.66 0.33 1.32 0.66 2 1 C2.625 3.5625 2.625 3.5625 3 6 C5.475 6.495 5.475 6.495 8 7 C7.67 7.66 7.34 8.32 7 9 C6.01 9 5.02 9 4 9 C4.37253906 9.845625 4.74507812 10.69125 5.12890625 11.5625 C7.9605921 18.35237344 9.7963589 22.81456439 8 30 C7.64370298 31.66621254 7.28956107 33.33288728 6.9375 35 C6.62873987 36.33420434 6.31761304 37.66787539 6 39 C5.01 38.505 5.01 38.505 4 38 C4 37.01 4 36.02 4 35 C3.071875 35.639375 2.14375 36.27875 1.1875 36.9375 C-4.91473099 40.88600241 -10.9249664 40.47494438 -18 40 C-22.53535232 39.00789168 -26.13861489 37.57425674 -30 35 C-30.33 36.32 -30.66 37.64 -31 39 C-32.48320272 35.16112237 -33.22419163 32.93795909 -32 29 C-30.89398437 29.32484375 -29.78796875 29.6496875 -28.6484375 29.984375 C-23.62189419 31.23603515 -18.7822515 31.29484567 -13.625 31.25 C-12.30242188 31.26160156 -12.30242188 31.26160156 -10.953125 31.2734375 C-4.76122625 31.25527944 0.97847653 30.42312183 7 29 C6.5949396 22.72156378 5.3730678 17.82701183 2.83984375 12.06640625 C2 10 2 10 2 8 C0.02 8.33 -1.96 8.66 -4 9 C-4 8.34 -4 7.68 -4 7 C-2.68 6.67 -1.36 6.34 0 6 C0 4.02 0 2.04 0 0 Z " fill="#9C9EB9" transform="translate(62,47)"/>
<path d="M0 0 C2.84643943 4.26965915 2.61350457 7.991007 2 13 C0.4375 16.625 0.4375 16.625 -2 19 C-5.5 19.6875 -5.5 19.6875 -9 19 C-11.4375 17.125 -11.4375 17.125 -13 14 C-13.41883743 10.62279187 -13.51283289 7.36919285 -13 4 C-10.84184495 1.84184495 -9.94361015 1.55101467 -7.0625 0.875 C-6.37285156 0.70742188 -5.68320312 0.53984375 -4.97265625 0.3671875 C-3 0 -3 0 0 0 Z " fill="#FBFBFC" transform="translate(54,16)"/>
<path d="M0 0 C3.70390021 2.02666238 5.65363011 3.48044516 8 7 C8.37478243 10.52295483 8.41127245 12.34881863 6.5 15.375 C6.005 15.91125 5.51 16.4475 5 17 C2 11.25 2 11.25 2 9 C1.319375 9.28875 0.63875 9.5775 -0.0625 9.875 C-3 11 -3 11 -6.75 11.9375 C-7.8225 12.288125 -8.895 12.63875 -10 13 C-10.33 13.99 -10.66 14.98 -11 16 C-11.66 16 -12.32 16 -13 16 C-14.60847182 12.78305636 -14.61309149 9.47862778 -14 6 C-9.68469398 0.66264781 -6.80323696 -0.56693641 0 0 Z " fill="#121757" transform="translate(52,7)"/>
<path d="M0 0 C0 3 0 3 -2 5.875 C-4.042719 9.06674843 -4.43172136 10.33036848 -4 14 C-1.03 14.495 -1.03 14.495 2 15 C2 13.02 2 11.04 2 9 C2.66 9 3.32 9 4 9 C4.33 10.98 4.66 12.96 5 15 C6.98 15.66 8.96 16.32 11 17 C11 17.33 11 17.66 11 18 C8.36 17.67 5.72 17.34 3 17 C2.79503906 17.62648438 2.59007812 18.25296875 2.37890625 18.8984375 C2.10949219 19.71570313 1.84007812 20.53296875 1.5625 21.375 C1.29566406 22.18710937 1.02882813 22.99921875 0.75390625 23.8359375 C0 26 0 26 -1 28 C-1.22622081 29.70363822 -1.40888473 31.41328701 -1.5625 33.125 C-1.68818359 34.49011719 -1.68818359 34.49011719 -1.81640625 35.8828125 C-1.87699219 36.58148438 -1.93757813 37.28015625 -2 38 C-5.7459093 32.38113604 -5.09553507 26.52822966 -5 20 C-5 18.68 -5 17.36 -5 16 C-5.66 15.34 -6.32 14.68 -7 14 C-7 8.03429829 -3.63155536 4.37563551 0 0 Z " fill="#9899B5" transform="translate(31,38)"/>
<path d="M0 0 C-6.08253917 5.27153395 -9.85513911 6.217088 -17.8125 6.3125 C-18.60720703 6.34150391 -19.40191406 6.37050781 -20.22070312 6.40039062 C-25.63735065 6.45863415 -28.71524123 5.62556511 -33 2 C-33.33 1.34 -33.66 0.68 -34 0 C-28.72 0.66 -23.44 1.32 -18 2 C-18 2.66 -18 3.32 -18 4 C-17.34 4 -16.68 4 -16 4 C-16 3.34 -16 2.68 -16 2 C-13.71022755 1.47090114 -11.41810812 0.95194981 -9.125 0.4375 C-7.84882812 0.14746094 -6.57265625 -0.14257812 -5.2578125 -0.44140625 C-2 -1 -2 -1 0 0 Z " fill="#F9F9FB" transform="translate(67,79)"/>
<path d="M0 0 C6.83384864 2.147781 11.59479847 7.85093773 15 14 C15.4375 16.8125 15.4375 16.8125 15 19 C14.34 19.66 13.68 20.32 13 21 C12.85502015 23.58064129 12.81322455 26.04943884 12.875 28.625 C12.88853516 29.68460938 12.88853516 29.68460938 12.90234375 30.765625 C12.92592397 32.51056098 12.96179539 34.25532295 13 36 C9.815501 34.4077505 9.45157492 31.13905856 8.375 27.9375 C8.14554688 27.27427734 7.91609375 26.61105469 7.6796875 25.92773438 C7.11324224 24.28740331 6.55577077 22.64397843 6 21 C6.78375 20.9175 7.5675 20.835 8.375 20.75 C11.06557 20.23866373 11.06557 20.23866373 12.49609375 18.28515625 C13.25059555 15.88890127 13.25059555 15.88890127 11.91015625 13.30859375 C8.18941274 7.52688872 5.7816435 3.79921154 -1 2 C-0.67 1.34 -0.34 0.68 0 0 Z " fill="#A1A1BB" transform="translate(59,34)"/>
<path d="M0 0 C0.66 0.33 1.32 0.66 2 1 C2.625 3.5625 2.625 3.5625 3 6 C4.65 6.33 6.3 6.66 8 7 C7.67 7.66 7.34 8.32 7 9 C6.01 9 5.02 9 4 9 C4.55880859 10.2684375 4.55880859 10.2684375 5.12890625 11.5625 C9.92622206 23.06560058 9.92622206 23.06560058 8 30 C7.34 30.99 6.68 31.98 6 33 C5.67 32.34 5.34 31.68 5 31 C5.33 30.34 5.66 29.68 6 29 C6.83241503 22.66818728 5.47016355 17.82442538 2.875 12.06640625 C2 10 2 10 2 8 C0.02 8.33 -1.96 8.66 -4 9 C-4 8.34 -4 7.68 -4 7 C-2.68 6.67 -1.36 6.34 0 6 C0 4.02 0 2.04 0 0 Z " fill="#8486A8" transform="translate(62,47)"/>
<path d="M0 0 C0.99 0.33 1.98 0.66 3 1 C2.67 2.98 2.34 4.96 2 7 C1.34 6.67 0.68 6.34 0 6 C0 5.01 0 4.02 0 3 C-0.928125 3.639375 -1.85625 4.27875 -2.8125 4.9375 C-7.37046936 7.88677429 -10.35300911 8.11531674 -15.6875 8.0625 C-17.45673828 8.04896484 -17.45673828 8.04896484 -19.26171875 8.03515625 C-20.16535156 8.02355469 -21.06898437 8.01195313 -22 8 C-21.67 7.34 -21.34 6.68 -21 6 C-18.96495587 5.79354625 -16.91959335 5.68554604 -14.875 5.625 C-8.84209736 5.26700358 -4.41453717 4.41453717 0 0 Z " fill="#A6A8C0" transform="translate(66,79)"/>
<path d="M0 0 C0.33 0.66 0.66 1.32 1 2 C1.66 2 2.32 2 3 2 C3.12117188 2.61488281 3.24234375 3.22976562 3.3671875 3.86328125 C3.53476562 4.67152344 3.70234375 5.47976562 3.875 6.3125 C4.11863281 7.51326172 4.11863281 7.51326172 4.3671875 8.73828125 C4.94478999 11.25301118 4.94478999 11.25301118 7 14 C5.39658445 14.33692785 3.79223445 14.66941093 2.1875 15 C1.29417969 15.185625 0.40085937 15.37125 -0.51953125 15.5625 C-3 16 -3 16 -6 16 C-3.06171403 13.49701566 -0.82097239 12.53069061 3 12 C2.319375 11.13375 1.63875 10.2675 0.9375 9.375 C-1 6 -1 6 -0.75 2.625 C-0.5025 1.75875 -0.255 0.8925 0 0 Z " fill="#9395B2" transform="translate(38,21)"/>
<path d="M0 0 C2 3 2 3 1.625 5.1875 C1.41875 5.785625 1.2125 6.38375 1 7 C0.34 7 -0.32 7 -1 7 C-1.33 8.65 -1.66 10.3 -2 12 C-1.01 12.66 -0.02 13.32 1 14 C-1.375 14.625 -1.375 14.625 -4 15 C-4.66 14.34 -5.32 13.68 -6 13 C-5.525625 12.29875 -5.05125 11.5975 -4.5625 10.875 C-2.90793689 7.83060387 -2.52751255 5.39115208 -2 2 C-1.34 1.34 -0.68 0.68 0 0 Z " fill="#8F91B0" transform="translate(58,21)"/>
<path d="M0 0 C1.32 0 2.64 0 4 0 C5.20272819 2.40545638 5.10071472 3.94996953 5.0625 6.625 C5.05347656 7.44226562 5.04445313 8.25953125 5.03515625 9.1015625 C5.02355469 9.72804688 5.01195313 10.35453125 5 11 C2.77174356 8.77174356 2.30760631 7.34238372 1.375 4.375 C1.11460938 3.55773438 0.85421875 2.74046875 0.5859375 1.8984375 C0.39257812 1.27195313 0.19921875 0.64546875 0 0 Z " fill="#F9F9FB" transform="translate(65,55)"/>
<path d="M0 0 C1.32 0 2.64 0 4 0 C2.84414715 3.91211733 1.64465038 6.8745041 -1 10 C-1.125 2.25 -1.125 2.25 0 0 Z " fill="#F9F9FB" transform="translate(29,54)"/>
<path d="M0 0 C0 0.33 0 0.66 0 1 C-1.19625 1.226875 -2.3925 1.45375 -3.625 1.6875 C-8.16767308 2.7948776 -10.64032749 4.80831111 -14 8 C-13.07870137 4.90108642 -12.32841931 3.27211886 -9.8125 1.1875 C-6.38325617 -0.26040295 -3.68625273 -0.2168384 0 0 Z " fill="#545988" transform="translate(52,7)"/>
<path d="M0 0 C0.99 0.495 0.99 0.495 2 1 C2.8125 3.875 2.8125 3.875 3 7 C2.01 7.99 1.02 8.98 0 10 C0 6.7 0 3.4 0 0 Z " fill="#B7B6CA" transform="translate(26,58)"/>
<path d="M0 0 C1.485 0.99 1.485 0.99 3 2 C3.40843923 4.71203652 3.13336867 7.2437142 3 10 C2.34 9.67 1.68 9.34 1 9 C0.5859375 6.93359375 0.5859375 6.93359375 0.375 4.4375 C0.30023437 3.61121094 0.22546875 2.78492187 0.1484375 1.93359375 C0.09945313 1.29550781 0.05046875 0.65742187 0 0 Z " fill="#8C8EAD" transform="translate(29,76)"/>
<path d="M0 0 C0.33 0.66 0.66 1.32 1 2 C1.66 2 2.32 2 3 2 C3 3.32 3 4.64 3 6 C2.01 6.33 1.02 6.66 0 7 C-0.93423645 3.98968256 -1.04449911 3.13349732 0 0 Z " fill="#9A9CB7" transform="translate(38,21)"/>
</svg>
