<?xml version="1.0" encoding="UTF-8"?>
<svg version="1.1" xmlns="http://www.w3.org/2000/svg" width="102" height="98">
<path d="M0 0 C33.66 0 67.32 0 102 0 C102 32.34 102 64.68 102 98 C68.34 98 34.68 98 0 98 C0 65.66 0 33.32 0 0 Z " fill="#FCFBFC" transform="translate(0,0)"/>
<path d="M0 0 C4.33057059 1.69082039 7.53887006 4.02764992 10 8 C10.95582591 12.35678785 10.8141287 16.38491621 8.79296875 20.39453125 C5.04475357 25.66101081 5.04475357 25.66101081 1.796875 26.71484375 C1.20390625 26.80894531 0.6109375 26.90304688 0 27 C-1.14947895 23.44706507 -1.0868937 22.20023331 0.4375 18.6875 C0.953125 17.800625 1.46875 16.91375 2 16 C1.34 16.33 0.68 16.66 0 17 C-3.31603624 17.63162595 -5.28880444 17.44257853 -8.171875 15.6484375 C-11.56825943 12.91446847 -13.70324917 11.08102087 -14.875 6.8125 C-14 4 -14 4 -11.5 1.625 C-7.49335283 -0.23522904 -4.30523097 -0.83112567 0 0 Z " fill="#0F1455" transform="translate(60,10)"/>
<path d="M0 0 C0.4846875 0.433125 0.969375 0.86625 1.46875 1.3125 C5.08561887 4.31728336 7.66224683 6.42683307 12.5 6.375 C13.655 6.25125 14.81 6.1275 16 6 C15 11 15 11 14.3125 13.375 C13.87065708 17.08648057 13.9459617 19.86593511 16 23 C19.47370899 25.6918621 23.15356528 27.88381769 27 30 C26.01 30.495 26.01 30.495 25 31 C23.23610281 30.02005712 21.47435859 29.03499019 19.7421875 28 C17.80507929 26.88811726 16.24192588 26.16013756 14 26 C13.01 26.66 12.02 27.32 11 28 C7.3125 27.625 7.3125 27.625 4 27 C4 26.34 4 25.68 4 25 C-0.43090471 26.20842856 -2.98112756 27.51668565 -6 31 C-4.92598892 28.08482708 -4.22189824 26.22189824 -2 24 C0.32275177 23.59952556 2.65739357 23.2602896 5 23 C3.76551991 19.29655972 1.76665659 17.69749018 -1 15 C-2.23184766 12.53630468 -2.16732342 10.8105499 -2.1875 8.0625 C-2.20167969 7.18722656 -2.21585938 6.31195312 -2.23046875 5.41015625 C-2 3 -2 3 0 0 Z " fill="#E8E8EE" transform="translate(46,20)"/>
<path d="M0 0 C5.28 0 10.56 0 16 0 C16 0.99 16 1.98 16 3 C17.32 3 18.64 3 20 3 C20 4.32 20 5.64 20 7 C18.35 7 16.7 7 15 7 C15 7.66 15 8.32 15 9 C16.32 9.33 17.64 9.66 19 10 C18.9278125 10.80824219 18.855625 11.61648437 18.78125 12.44921875 C18.64203125 14.05216797 18.64203125 14.05216797 18.5 15.6875 C18.36078125 17.27111328 18.36078125 17.27111328 18.21875 18.88671875 C18.0276585 21.60636025 17.95956065 24.27539856 18 27 C19.98 26.01 21.96 25.02 24 24 C23.34 25.32 22.68 26.64 22 28 C21.34 28 20.68 28 20 28 C21.52555966 32.81122847 21.52555966 32.81122847 25 36 C25.66 33.69 26.32 31.38 27 29 C27.33 29 27.66 29 28 29 C27.85969417 32.66689972 27.71174579 36.33345412 27.5625 40 C27.52318359 41.02996094 27.48386719 42.05992188 27.44335938 43.12109375 C27.20814561 48.80241075 26.80518623 54.37046268 26 60 C25.67 60 25.34 60 25 60 C24.97088679 56.9166866 24.95316318 53.83340875 24.9375 50.75 C24.92912109 49.87730469 24.92074219 49.00460938 24.91210938 48.10546875 C24.90727539 46.83896484 24.90727539 46.83896484 24.90234375 45.546875 C24.89448853 44.38430176 24.89448853 44.38430176 24.88647461 43.19824219 C25 41 25 41 26 37 C23.03 37.66 20.06 38.32 17 39 C11.51083464 32.62548539 11.76078614 27.35493335 11.28125 19.1171875 C11.19979618 16.09540018 11.19979618 16.09540018 10 14 C10.0859375 11.90625 10.0859375 11.90625 10.375 9.5 C10.46523438 8.7059375 10.55546875 7.911875 10.6484375 7.09375 C11 5 11 5 12 3 C10.741875 2.855625 9.48375 2.71125 8.1875 2.5625 C5.57332877 2.26251314 3.52560108 1.84186703 1 1 C0.67 1.66 0.34 2.32 0 3 C0 2.01 0 1.02 0 0 Z " fill="#C5C4D4" transform="translate(16,27)"/>
<path d="M0 0 C8.61445783 7.12349398 8.61445783 7.12349398 11 11 C11 13.625 11 13.625 10 16 C7.9375 17.8125 7.9375 17.8125 6 19 C5.34 18.67 4.68 18.34 4 18 C5.65 16.68 7.3 15.36 9 14 C7.64978174 9.58110387 5.73884332 7.65654657 2 5 C1.34 6.32 0.68 7.64 0 9 C0.99 9.99 1.98 10.98 3 12 C1.48839546 15.84772066 -0.41064212 17.93802845 -4 20 C-7.07959732 20.03616977 -9.98542322 19.6042289 -13 19 C-13.33 17.02 -13.66 15.04 -14 13 C-13.01 13 -12.02 13 -11 13 C-10.67 11.02 -10.34 9.04 -10 7 C-7.23723823 7.52268466 -4.6739124 8.10869587 -2 9 C-1.34 6.03 -0.68 3.06 0 0 Z " fill="#C0BFD0" transform="translate(73,51)"/>
<path d="M0 0 C-3.465 1.485 -3.465 1.485 -7 3 C-6.855625 3.845625 -6.71125 4.69125 -6.5625 5.5625 C-5.9941203 9.03593149 -5.48797607 12.51445662 -5 16 C-8.96 16.495 -8.96 16.495 -13 17 C-13.86355778 15.04578965 -14.71559934 13.08648653 -15.5625 11.125 C-16.03816406 10.03445312 -16.51382813 8.94390625 -17.00390625 7.8203125 C-17.33261719 6.88960938 -17.66132812 5.95890625 -18 5 C-17.67 4.34 -17.34 3.68 -17 3 C-16.34 3.66 -15.68 4.32 -15 5 C-14.01 5 -13.02 5 -12 5 C-11.38125 4.38125 -10.7625 3.7625 -10.125 3.125 C-6.86308537 -0.13691463 -4.46115624 -1.48705208 0 0 Z " fill="#BEB7C9" transform="translate(77,71)"/>
<path d="M0 0 C0.33 0 0.66 0 1 0 C0.67 2.97 0.34 5.94 0 9 C1.32 9.33 2.64 9.66 4 10 C3.7525 10.9590625 3.7525 10.9590625 3.5 11.9375 C2.30986987 19.22704703 2.80887549 24.36246101 6 31 C6.6875 33.9375 6.6875 33.9375 7 36 C4.625 35.6875 4.625 35.6875 2 35 C-0.36915055 31.44627418 -0.4006219 28.68052104 -0.5625 24.5625 C-0.7420405 20.60114905 -0.95077044 16.84153404 -2 13 C-2.23640155 8.03556744 -2.26371731 4.52743462 0 0 Z " fill="#FCFCFC" transform="translate(30,28)"/>
<path d="M0 0 C2.97 0.99 5.94 1.98 9 3 C9 7 9 7 7.8125 8.75 C5.44116664 10.38540232 3.81923877 10.22858693 1 10 C-0.60725635 6.78548731 -0.05748185 3.56387464 0 0 Z " fill="#FAF2F4" transform="translate(64,59)"/>
<path d="M0 0 C5.28 0 10.56 0 16 0 C16 0.99 16 1.98 16 3 C17.32 3 18.64 3 20 3 C20 4.32 20 5.64 20 7 C18.35 7 16.7 7 15 7 C14.67 5.68 14.34 4.36 14 3 C13.34 4.98 12.68 6.96 12 9 C10.875 5.25 10.875 5.25 12 3 C10.741875 2.855625 9.48375 2.71125 8.1875 2.5625 C5.57332877 2.26251314 3.52560108 1.84186703 1 1 C0.67 1.66 0.34 2.32 0 3 C0 2.01 0 1.02 0 0 Z " fill="#B0B1C7" transform="translate(16,27)"/>
<path d="M0 0 C0.33 2.31 0.66 4.62 1 7 C-0.75 8.5625 -0.75 8.5625 -3 10 C-5.25 9.6875 -5.25 9.6875 -7 9 C-7 5 -7 5 -5.6875 3.375 C-1.54545455 0 -1.54545455 0 0 0 Z " fill="#FCFCFC" transform="translate(59,37)"/>
<path d="M0 0 C0.66 0.66 1.32 1.32 2 2 C1.34 2 0.68 2 0 2 C-0.35050464 7.841744 -0.16727335 11.8531808 3 17 C5.97 17 8.94 17 12 17 C11.01 17.99 10.02 18.98 9 20 C8.34 20 7.68 20 7 20 C6.67 20.99 6.34 21.98 6 23 C-1.7232233 15.69424823 -1.7232233 15.69424823 -2.25 10.56640625 C-2.41137798 3.61706697 -2.41137798 3.61706697 0 0 Z " fill="#C2C3D4" transform="translate(46,20)"/>
<path d="M0 0 C2.64 0 5.28 0 8 0 C8 1.65 8 3.3 8 5 C5.36 5.33 2.72 5.66 0 6 C0 4.02 0 2.04 0 0 Z " fill="#D51525" transform="translate(64,82)"/>
<path d="M0 0 C3.63 0.66 7.26 1.32 11 2 C10.67 2.99 10.34 3.98 10 5 C7.03 4.67 4.06 4.34 1 4 C0.67 2.68 0.34 1.36 0 0 Z " fill="#E0E0E9" transform="translate(17,28)"/>
<path d="M0 0 C2 3 2 3 2 5 C0.02 5 -1.96 5 -4 5 C-4 4.01 -4 3.02 -4 2 C-2.68 1.34 -1.36 0.68 0 0 Z " fill="#FAFAFB" transform="translate(67,76)"/>
<path d="M0 0 C-5.75 5 -5.75 5 -8 5 C-7.8125 3.125 -7.8125 3.125 -7 1 C-2.66666667 -1.33333333 -2.66666667 -1.33333333 0 0 Z " fill="#FAF1F2" transform="translate(77,72)"/>
<path d="M0 0 C1.65 0 3.3 0 5 0 C5 1.32 5 2.64 5 4 C3.35 4 1.7 4 0 4 C0 2.68 0 1.36 0 0 Z " fill="#B0374F" transform="translate(31,30)"/>
</svg>
