<?xml version="1.0" encoding="UTF-8"?>
<svg version="1.1" xmlns="http://www.w3.org/2000/svg" width="77" height="95">
<path d="M0 0 C25.41 0 50.82 0 77 0 C77 31.35 77 62.7 77 95 C51.59 95 26.18 95 0 95 C0 63.65 0 32.3 0 0 Z " fill="#FBFBFC" transform="translate(0,0)"/>
<path d="M0 0 C2.75426788 0.91430336 4.86211523 2.02399162 7 4 C8.6875 7.625 8.6875 7.625 9.30859375 9.71484375 C10.34420423 13.13762415 11.87328346 16.34261761 13.328125 19.60546875 C14.12983357 22.46272079 13.8267301 24.17573707 13 27 C11.9375 28.75 11.9375 28.75 10 30 C7.31975498 30.54558347 4.73690355 30.77566364 2 31 C2.3958515 28.14986919 2.65624427 26.39875665 4.5625 24.1875 C6.76946363 20.82907708 6.19821978 17.96439569 6 14 C4.948125 14.0825 3.89625 14.165 2.8125 14.25 C-1.60270597 13.9604783 -2.81613393 12.9185439 -6 10 C-6.99 9.67 -7.98 9.34 -9 9 C-11.24089661 13.34997576 -11.16045265 16.27529991 -10 21 C-8.948125 22.546875 -8.948125 22.546875 -7.875 24.125 C-6 27 -6 27 -6.25 29.875 C-6.62125 30.926875 -6.62125 30.926875 -7 32 C-13.4 32.36923077 -13.4 32.36923077 -16.4375 30.5 C-16.953125 30.005 -17.46875 29.51 -18 29 C-17.38033939 23.52121856 -16.55155155 18.18515093 -15.3125 12.8125 C-15.17650391 12.12736328 -15.04050781 11.44222656 -14.90039062 10.73632812 C-13.07347313 2.92494016 -8.22051797 -1.29797652 0 0 Z " fill="#101556" transform="translate(43,6)"/>
<path d="M0 0 C2.5011748 0.44663836 3.82756946 0.84604416 5.75 2.5625 C9.16348916 4.7433403 11.99872124 4.20006394 16 4 C16.63373083 12.08006814 16.63373083 12.08006814 14.0625 15.8125 C13.381875 16.534375 12.70125 17.25625 12 18 C11.35419644 20.07640552 11.35419644 20.07640552 11 22 C12.43931117 21.54738642 13.87638999 21.08767021 15.3125 20.625 C16.11300781 20.36976562 16.91351563 20.11453125 17.73828125 19.8515625 C20.22724528 19.01168189 20.22724528 19.01168189 23 17 C22.690625 17.598125 22.38125 18.19625 22.0625 18.8125 C20.89790296 21.08956772 20.89790296 21.08956772 20 24 C17.03 23.67 14.06 23.34 11 23 C10.67 24.32 10.34 25.64 10 27 C8 28 8 28 4.875 27.0625 C3.92625 26.711875 2.9775 26.36125 2 26 C2 25.34 2 24.68 2 24 C-5.38997173 24.84708485 -5.38997173 24.84708485 -12 28 C-14.93566245 32.40349367 -17.57348899 37.91880004 -16.5703125 43.30859375 C-16.38210937 43.86675781 -16.19390625 44.42492188 -16 45 C-13.69 45.33 -11.38 45.66 -9 46 C-9.33 53.26 -9.66 60.52 -10 68 C-10.33 68 -10.66 68 -11 68 C-11.04898437 66.85660156 -11.09796875 65.71320313 -11.1484375 64.53515625 C-11.22345189 63.04424527 -11.29900028 61.55336108 -11.375 60.0625 C-11.4059375 59.30775391 -11.436875 58.55300781 -11.46875 57.77539062 C-11.5726315 55.84492605 -11.77895614 53.92057919 -12 52 C-12.66 51.67 -13.32 51.34 -14 51 C-14 55.62 -14 60.24 -14 65 C-14.33 65 -14.66 65 -15 65 C-15 59.06 -15 53.12 -15 47 C-16.32 46.34 -17.64 45.68 -19 45 C-20.41965715 40.74102855 -18.6280484 37.94656376 -17 34 C-16.5875 32.783125 -16.175 31.56625 -15.75 30.3125 C-13.5654477 26.17745458 -11.32914211 23.83060866 -7 22 C-3.94586836 21.62126825 -1.05708283 21.68805277 2 22 C1.57707844 18.51089713 0.78664567 16.66114313 -1.125 13.625 C-2.90353004 10.67367116 -2.99826479 9.94794361 -2.875 6.25 C-2 3 -2 3 0 0 Z " fill="#F5F5F8" transform="translate(34,15)"/>
<path d="M0 0 C0 3 0 3 -2 7 C-4.97 6.67 -7.94 6.34 -11 6 C-11.33 7.32 -11.66 8.64 -12 10 C-14 11 -14 11 -17.125 10.0625 C-18.548125 9.5365625 -18.548125 9.5365625 -20 9 C-20 8.34 -20 7.68 -20 7 C-27.38997173 7.84708485 -27.38997173 7.84708485 -34 11 C-36.93566245 15.40349367 -39.57348899 20.91880004 -38.5703125 26.30859375 C-38.38210937 26.86675781 -38.19390625 27.42492187 -38 28 C-35.69 28.33 -33.38 28.66 -31 29 C-31.33 36.26 -31.66 43.52 -32 51 C-32.33 51 -32.66 51 -33 51 C-33.04898438 49.85660156 -33.09796875 48.71320313 -33.1484375 47.53515625 C-33.22345189 46.04424527 -33.29900028 44.55336108 -33.375 43.0625 C-33.4059375 42.30775391 -33.436875 41.55300781 -33.46875 40.77539062 C-33.5726315 38.84492605 -33.77895614 36.92057919 -34 35 C-34.66 34.67 -35.32 34.34 -36 34 C-36 38.62 -36 43.24 -36 48 C-36.33 48 -36.66 48 -37 48 C-37 42.06 -37 36.12 -37 30 C-38.32 29.34 -39.64 28.68 -41 28 C-42.41965715 23.74102855 -40.6280484 20.94656376 -39 17 C-38.5875 15.783125 -38.175 14.56625 -37.75 13.3125 C-35.57069036 9.18737817 -33.33012538 6.81318826 -29 5 C-26.566151 4.7968473 -24.34484048 4.85820979 -21.91796875 5.1171875 C-21.28503906 5.07851563 -20.65210937 5.03984375 -20 5 C-19.34 4.01 -18.68 3.02 -18 2 C-18 2.99 -18 3.98 -18 5 C-16.02 5 -14.04 5 -12 5 C-11.67 4.01 -11.34 3.02 -11 2 C-11 2.99 -11 3.98 -11 5 C-9.53932801 4.54917531 -8.08151968 4.08906463 -6.625 3.625 C-5.81289063 3.36976562 -5.00078125 3.11453125 -4.1640625 2.8515625 C-1.83540815 2.10145717 -1.83540815 2.10145717 0 0 Z " fill="#CCC9D8" transform="translate(56,32)"/>
<path d="M0 0 C0 3 0 3 -2 7 C-4.97 6.67 -7.94 6.34 -11 6 C-11.33 7.32 -11.66 8.64 -12 10 C-14 11 -14 11 -16 10.875 C-18 10 -18 10 -19.375 7.625 C-19.58125 6.75875 -19.7875 5.8925 -20 5 C-19.34 4.01 -18.68 3.02 -18 2 C-18 2.99 -18 3.98 -18 5 C-16.02 5 -14.04 5 -12 5 C-11.67 4.01 -11.34 3.02 -11 2 C-11 2.99 -11 3.98 -11 5 C-9.53932801 4.54917531 -8.08151968 4.08906463 -6.625 3.625 C-5.40683594 3.24214844 -5.40683594 3.24214844 -4.1640625 2.8515625 C-1.83540815 2.10145717 -1.83540815 2.10145717 0 0 Z " fill="#B3ADC2" transform="translate(56,32)"/>
<path d="M0 0 C1.9756562 2.96348429 2.26376859 3.68020373 2.4140625 7.01171875 C2.45273437 7.76904297 2.49140625 8.52636719 2.53125 9.30664062 C2.57765625 10.48516602 2.57765625 10.48516602 2.625 11.6875 C2.66367187 12.48478516 2.70234375 13.28207031 2.7421875 14.10351562 C2.83632494 16.06863475 2.91924632 18.0342854 3 20 C0.38703515 18.69351757 0.03832083 17.71244165 -1 15 C-1.23046875 12.08984375 -1.23046875 12.08984375 -1.1875 8.9375 C-1.18105469 7.89464844 -1.17460938 6.85179688 -1.16796875 5.77734375 C-1 3 -1 3 0 0 Z " fill="#F2F2F6" transform="translate(58,61)"/>
<path d="M0 0 C1.65 0 3.3 0 5 0 C4.67 1.65 4.34 3.3 4 5 C3.01 4.67 2.02 4.34 1 4 C1 8.62 1 13.24 1 18 C0.67 18 0.34 18 0 18 C0 12.06 0 6.12 0 0 Z " fill="#DCD9E2" transform="translate(19,62)"/>
<path d="M0 0 C2.31 0 4.62 0 7 0 C6.67 1.65 6.34 3.3 6 5 C4.35 4.67 2.7 4.34 1 4 C0.67 2.68 0.34 1.36 0 0 Z " fill="#D80F1E" transform="translate(37,38)"/>
<path d="M0 0 C2.475 0.495 2.475 0.495 5 1 C4.67 2.32 4.34 3.64 4 5 C2.68 4.67 1.36 4.34 0 4 C0 2.68 0 1.36 0 0 Z " fill="#CABECD" transform="translate(38,42)"/>
<path d="M0 0 C1.98 0 3.96 0 6 0 C6 0.99 6 1.98 6 3 C4.02 3 2.04 3 0 3 C0 2.01 0 1.02 0 0 Z " fill="#DDDEE7" transform="translate(38,34)"/>
</svg>
