<?xml version="1.0" encoding="UTF-8"?>
<svg version="1.1" xmlns="http://www.w3.org/2000/svg" width="85" height="90">
<path d="M0 0 C28.05 0 56.1 0 85 0 C85 29.7 85 59.4 85 90 C56.95 90 28.9 90 0 90 C0 60.3 0 30.6 0 0 Z " fill="#F8F7F9" transform="translate(0,0)"/>
<path d="M0 0 C7.16095814 5.20796956 10.15499866 14.64322922 12 23 C12.24854083 25.44990246 12.21017154 27.53048445 12 30 C11.67 30.33 11.34 30.66 11 31 C10.60333773 33.18019479 10.25684763 35.3696463 9.9375 37.5625 C9.67259766 39.35880859 9.67259766 39.35880859 9.40234375 41.19140625 C9.26957031 42.11824219 9.13679688 43.04507813 9 44 C8.34 44 7.68 44 7 44 C6.87625 44.804375 6.7525 45.60875 6.625 46.4375 C6.315625 47.7059375 6.315625 47.7059375 6 49 C5.01 49.495 5.01 49.495 4 50 C3.34 49.67 2.68 49.34 2 49 C2 48.34 2 47.68 2 47 C-3.94 47.33 -9.88 47.66 -16 48 C-21.09913793 37.80172414 -21.09913793 37.80172414 -20 31 C-18.625 27.9375 -18.625 27.9375 -17 26 C-16.34 26 -15.68 26 -15 26 C-15.32226562 25.46117188 -15.64453125 24.92234375 -15.9765625 24.3671875 C-17.94507364 19.81406631 -17.52728362 14.85621704 -17 10 C-13.52177292 2.78589939 -8.19871492 -1.88303818 0 0 Z " fill="#E2E3EB" transform="translate(50,6)"/>
<path d="M0 0 C7.16095814 5.20796956 10.15499866 14.64322922 12 23 C12.24854083 25.44990246 12.21017154 27.53048445 12 30 C11.67 30.33 11.34 30.66 11 31 C10.60333773 33.18019479 10.25684763 35.3696463 9.9375 37.5625 C9.67259766 39.35880859 9.67259766 39.35880859 9.40234375 41.19140625 C9.26957031 42.11824219 9.13679688 43.04507813 9 44 C7.94991054 40.26726012 8 36.87418168 8 33 C6.64091992 28.92275976 4.45881858 28.35182505 0.8125 26.37890625 C-1 25 -1 25 -1.8359375 22.921875 C-1.89007813 22.28765625 -1.94421875 21.6534375 -2 21 C-1.54625 20.566875 -1.0925 20.13375 -0.625 19.6875 C1.92368128 17.04079252 1.87443899 14.57848884 2 11 C0.7089129 8.5787681 0.7089129 8.5787681 -1 7 C-2.35208914 7.62775567 -3.68163705 8.30419733 -5 9 C-5.7425 9.37125 -6.485 9.7425 -7.25 10.125 C-9.36836666 12.39467856 -9.25 13.16782821 -9.25 16.1875 C-9.1675 17.445625 -9.085 18.70375 -9 20 C-8.01 20.33 -7.02 20.66 -6 21 C-9.49087093 25.0042343 -11.64951939 26.62671065 -17 27 C-16.34 26.67 -15.68 26.34 -15 26 C-15.32226562 25.46117188 -15.64453125 24.92234375 -15.9765625 24.3671875 C-17.94507364 19.81406631 -17.52728362 14.85621704 -17 10 C-13.52177292 2.78589939 -8.19871492 -1.88303818 0 0 Z " fill="#161A5A" transform="translate(50,6)"/>
<path d="M0 0 C1.010625 -0.03287109 2.02125 -0.06574219 3.0625 -0.09960938 C5.79877176 -0.119622 8.31148202 -0.07416975 11 0.4375 C14.30084791 3.96080942 14.53710908 7.71601257 15 12.4375 C4.98556995 14.77907863 -3.8319615 14.62624772 -14 13.4375 C-14.08086147 11.64656809 -14.13912702 9.85460372 -14.1875 8.0625 C-14.22230469 7.06476563 -14.25710937 6.06703125 -14.29296875 5.0390625 C-14.14794922 3.75128906 -14.14794922 3.75128906 -14 2.4375 C-9.5298381 -0.54260793 -5.26061838 0.03019488 0 0 Z " fill="#FEFEFE" transform="translate(45,60.5625)"/>
<path d="M0 0 C0.99 0.33 1.98 0.66 3 1 C2.46019653 4.39305036 1.83449189 7.66203244 1 11 C-3.95 10.67 -8.9 10.34 -14 10 C-14.66 7.03 -15.32 4.06 -16 1 C-10.50067029 -1.74966485 -5.79033852 -1.6443152 0 0 Z " fill="#FDFDFE" transform="translate(51,41)"/>
<path d="M0 0 C3.16115776 1.36983503 3.9927092 1.9890638 6 5 C5.91589679 9.54157334 5.45644267 11.47676084 2.4375 14.9375 C1.2309375 15.9584375 1.2309375 15.9584375 0 17 C-2 16 -4 15 -6 14 C-7.43834057 9.00811215 -7.43834057 9.00811215 -7 6 C-4.99236074 3.50613561 -2.66398324 1.75384433 0 0 Z " fill="#F6F6F9" transform="translate(47,12)"/>
<path d="M0 0 C4.95 0 9.9 0 15 0 C15.66 1.98 16.32 3.96 17 6 C10.4 6 3.8 6 -3 6 C-2.01 4.02 -1.02 2.04 0 0 Z " fill="#FDFDFD" transform="translate(37,53)"/>
<path d="M0 0 C0.99 0 1.98 0 3 0 C3.33 2.31 3.66 4.62 4 7 C3.31897217 6.99476318 2.63794434 6.98952637 1.9362793 6.98413086 C-1.14663777 6.96335542 -4.2295401 6.95033802 -7.3125 6.9375 C-8.38435547 6.92912109 -9.45621094 6.92074219 -10.56054688 6.91210938 C-11.58857422 6.90888672 -12.61660156 6.90566406 -13.67578125 6.90234375 C-14.62364502 6.89710693 -15.57150879 6.89187012 -16.5480957 6.88647461 C-19.13838681 6.89501146 -19.13838681 6.89501146 -22 8 C-21.34 6.35 -20.68 4.7 -20 3 C-13.4 3 -6.8 3 0 3 C0 2.01 0 1.02 0 0 Z " fill="#9FA0BA" transform="translate(53,55)"/>
<path d="M0 0 C1 2 1 2 0.5 4.0625 C-0.19582785 8.15048864 0.42221142 11.91992374 1 16 C-1 14 -1 14 -3 11 C-3.66 11 -4.32 11 -5 11 C-5.1953125 4.9453125 -5.1953125 4.9453125 -5 3 C-3 1 -3 1 0 0 Z " fill="#A6A5BE" transform="translate(25,61)"/>
<path d="M0 0 C0.99 0 1.98 0 3 0 C3 2.31 3 4.62 3 7 C2.01 7.33 1.02 7.66 0 8 C0 5.36 0 2.72 0 0 Z " fill="#C8C9D8" transform="translate(20,64)"/>
<path d="M0 0 C0.66 0.33 1.32 0.66 2 1 C1.030625 1.7425 0.06125 2.485 -0.9375 3.25 C-3.02387361 4.97309915 -3.90112479 5.73868694 -4.875 8.3125 C-4.91625 8.869375 -4.9575 9.42625 -5 10 C-5.66 10 -6.32 10 -7 10 C-7.33 9.01 -7.66 8.02 -8 7 C-5.36 4.69 -2.72 2.38 0 0 Z " fill="#666993" transform="translate(45,12)"/>
</svg>
