<?xml version="1.0" encoding="UTF-8"?>
<svg version="1.1" xmlns="http://www.w3.org/2000/svg" width="52" height="50">
<path d="M0 0 C17.16 0 34.32 0 52 0 C52 16.5 52 33 52 50 C34.84 50 17.68 50 0 50 C0 33.5 0 17 0 0 Z " fill="#EEF4FC" transform="translate(0,0)"/>
<path d="M0 0 C0.7425 0.33 1.485 0.66 2.25 1 C7.5121552 2.40324139 12.5857837 2.15769562 18 2 C18 2.66 18 3.32 18 4 C16.68 4.33 15.36 4.66 14 5 C15.31974709 7.16749754 15.31974709 7.16749754 18 9 C20.79492269 9.45380384 23.51495637 9.62553416 26.34375 9.7265625 C29.0354137 10.00364553 30.68892108 10.63733554 33 12 C33.18311068 16.0284349 32.94158017 18.48375245 31 22 C29.39536551 21.68991116 27.79130769 21.37683713 26.1875 21.0625 C24.84751953 20.80146484 24.84751953 20.80146484 23.48046875 20.53515625 C21 20 21 20 18 19 C18.01160156 20.14339844 18.02320312 21.28679688 18.03515625 22.46484375 C18.04453288 23.95572754 18.05363321 25.44661309 18.0625 26.9375 C18.07087891 27.69224609 18.07925781 28.44699219 18.08789062 29.22460938 C18.09652441 31.14994313 18.05224333 33.07535581 18 35 C16.17883997 36.82116003 13.69328236 36.1323508 11.2734375 36.13671875 C10.52320313 36.13285156 9.77296875 36.12898438 9 36.125 C7.87464844 36.13080078 7.87464844 36.13080078 6.7265625 36.13671875 C1.12661053 36.12661053 1.12661053 36.12661053 0 35 C-0.10002455 32.34346557 -0.13877463 29.71870728 -0.125 27.0625 C-0.12886719 26.32064453 -0.13273438 25.57878906 -0.13671875 24.81445312 C-0.12663501 19.25327002 -0.12663501 19.25327002 1 17 C0.34 17 -0.32 17 -1 17 C-1.26218749 13.85375007 -1.24754367 12.38162983 0.5 9.6875 C0.995 9.130625 1.49 8.57375 2 8 C0.35 7.67 -1.3 7.34 -3 7 C-2.690625 6.401875 -2.38125 5.80375 -2.0625 5.1875 C-0.89790296 2.91043228 -0.89790296 2.91043228 0 0 Z " fill="#ACBBD3" transform="translate(13,8)"/>
<path d="M0 0 C1.875 0.1875 1.875 0.1875 4 1 C4.71727778 2.64551962 5.38325228 4.31422289 6 6 C6.99 6.66 7.98 7.32 9 8 C9.24890658 10.61055594 9.3272977 12.96094922 9.25 15.5625 C9.24484375 16.26052734 9.2396875 16.95855469 9.234375 17.67773438 C9.1541718 22.8458282 9.1541718 22.8458282 8 24 C5.66839945 24.09909302 3.33370058 24.12970504 1 24.125 C-0.27875 24.12757812 -1.5575 24.13015625 -2.875 24.1328125 C-6 24 -6 24 -7 23 C-7.07313567 20.46950598 -7.09247527 17.96695163 -7.0625 15.4375 C-7.05798828 14.72658203 -7.05347656 14.01566406 -7.04882812 13.28320312 C-7.03700864 11.52209987 -7.01907263 9.76103964 -7 8 C-6.030625 7.71125 -5.06125 7.4225 -4.0625 7.125 C-0.89335797 6.35785318 -0.89335797 6.35785318 0 4 C0.66 4 1.32 4 2 4 C1.34 2.68 0.68 1.36 0 0 Z " fill="#FAF6F6" transform="translate(21,19)"/>
<path d="M0 0 C2.9375 0.75 2.9375 0.75 6 2 C6.875 4.125 6.875 4.125 7 6 C8.32 6.33 9.64 6.66 11 7 C9.02 7.66 7.04 8.32 5 9 C6.423125 8.938125 6.423125 8.938125 7.875 8.875 C11 9 11 9 13 11 C12.625 13.125 12.625 13.125 12 15 C11.67 14.01 11.34 13.02 11 12 C10.67 12.33 10.34 12.66 10 13 C10 13.66 10 14.32 10 15 C9.34 15 8.68 15 8 15 C7.67 15.99 7.34 16.98 7 18 C5.02 18.33 3.04 18.66 1 19 C1 18.34 1 17.68 1 17 C0.34 17 -0.32 17 -1 17 C-1.26218749 13.85375007 -1.24754367 12.38162983 0.5 9.6875 C0.995 9.130625 1.49 8.57375 2 8 C0.35 7.67 -1.3 7.34 -3 7 C-2.690625 6.401875 -2.38125 5.80375 -2.0625 5.1875 C-0.89790296 2.91043228 -0.89790296 2.91043228 0 0 Z " fill="#9EABC1" transform="translate(13,8)"/>
<path d="M0 0 C2.50996911 1.78368018 3.39458522 3.28740262 5 6 C5 6.33 5 6.66 5 7 C-2.28695785 7.474377 -6.97181491 7.28670939 -13 3 C-13 2.34 -13 1.68 -13 1 C-9.02749206 -0.98625397 -4.30669234 -0.68261694 0 0 Z " fill="#FAFAFA" transform="translate(25,4)"/>
<path d="M0 0 C4.875 1.875 4.875 1.875 6 3 C6 2.34 6 1.68 6 1 C6.66 1 7.32 1 8 1 C8 1.99 8 2.98 8 4 C8.66 4.33 9.32 4.66 10 5 C10.33 3.68 10.66 2.36 11 1 C12 2 12 2 12.25 5.375 C12 9 12 9 10.9375 10.9375 C7.98831309 12.55479605 5.29132441 12.18630138 2 12 C2 11.67 2 11.34 2 11 C3.98 11 5.96 11 8 11 C6.02 10.34 4.04 9.68 2 9 C2 8.01 2 7.02 2 6 C1.34 6 0.68 6 0 6 C-0.38218767 4.34385343 -0.71395102 2.67542976 -1 1 C-0.67 0.67 -0.34 0.34 0 0 Z " fill="#D6AEB0" transform="translate(17,29)"/>
<path d="M0 0 C2.9375 0.75 2.9375 0.75 6 2 C6.875 4.125 6.875 4.125 7 6 C8.32 6.33 9.64 6.66 11 7 C6.545 8.485 6.545 8.485 2 10 C2 10.66 2 11.32 2 12 C1.34 11.67 0.68 11.34 0 11 C0.66 10.01 1.32 9.02 2 8 C0.35 7.67 -1.3 7.34 -3 7 C-2.690625 6.401875 -2.38125 5.80375 -2.0625 5.1875 C-0.89790296 2.91043228 -0.89790296 2.91043228 0 0 Z " fill="#8E8690" transform="translate(13,8)"/>
<path d="M0 0 C9.10714286 2.00892857 9.10714286 2.00892857 13 3 C13 3.99 13 4.98 13 6 C12.113125 5.938125 11.22625 5.87625 10.3125 5.8125 C6.62834788 6.02103691 5.01892731 6.9873818 2 9 C1.34 9 0.68 9 0 9 C0 6.03 0 3.06 0 0 Z " fill="#ABBBD5" transform="translate(0,2)"/>
<path d="M0 0 C5.4 -0.36 5.4 -0.36 7.875 1.125 C9.50531294 3.84218824 9.33015665 5.89652746 9 9 C8.34 9.66 7.68 10.32 7 11 C6.67 8.36 6.34 5.72 6 3 C5.34 3 4.68 3 4 3 C4.33 4.65 4.66 6.3 5 8 C4.566875 7.34 4.13375 6.68 3.6875 6 C2.8521875 5.01 2.8521875 5.01 2 4 C1.01 4 0.02 4 -1 4 C-0.67 2.68 -0.34 1.36 0 0 Z " fill="#F9D7D9" transform="translate(19,27)"/>
<path d="M0 0 C1.98 0.99 1.98 0.99 4 2 C3.34 2 2.68 2 2 2 C2 2.66 2 3.32 2 4 C2.66 4 3.32 4 4 4 C4 4.99 4 5.98 4 7 C4.99 6.67 5.98 6.34 7 6 C7 6.66 7 7.32 7 8 C7.99 7.67 8.98 7.34 10 7 C10 7.66 10 8.32 10 9 C7.69 9.33 5.38 9.66 3 10 C0.64551835 7.44931155 0.01672076 6.28982642 -0.1875 2.75 C-0.125625 1.8425 -0.06375 0.935 0 0 Z " fill="#FDD4D6" transform="translate(15,31)"/>
<path d="M0 0 C0.33 0.66 0.66 1.32 1 2 C2.64363134 2.72159424 4.31050386 3.39351421 6 4 C6 3.34 6 2.68 6 2 C6.99 2.33 7.98 2.66 9 3 C8.67 3.99 8.34 4.98 8 6 C6.02 6.33 4.04 6.66 2 7 C2 6.34 2 5.68 2 5 C1.34 5 0.68 5 0 5 C0 3.35 0 1.7 0 0 Z " fill="#88909D" transform="translate(12,20)"/>
<path d="M0 0 C0.33 0.66 0.66 1.32 1 2 C-2.63423209 4.32590854 -5.77088331 4.16265833 -10 4 C-10 3.01 -10 2.02 -10 1 C-6.7 0.67 -3.4 0.34 0 0 Z " fill="#A2A3A4" transform="translate(30,10)"/>
<path d="M0 0 C2.475 0.99 2.475 0.99 5 2 C5 3.65 5 5.3 5 7 C4.34 7 3.68 7 3 7 C2.67 5.68 2.34 4.36 2 3 C1.01 3 0.02 3 -1 3 C-0.67 2.01 -0.34 1.02 0 0 Z " fill="#E8B6B8" transform="translate(17,29)"/>
</svg>
