<?xml version="1.0" encoding="UTF-8"?>
<svg version="1.1" xmlns="http://www.w3.org/2000/svg" width="52" height="47">
<path d="M0 0 C17.16 0 34.32 0 52 0 C52 15.51 52 31.02 52 47 C34.84 47 17.68 47 0 47 C0 31.49 0 15.98 0 0 Z " fill="#EEF4FC" transform="translate(0,0)"/>
<path d="M0 0 C1.60875 0.4640625 1.60875 0.4640625 3.25 0.9375 C6 2 6 2 7 4 C7.59877255 10.10748001 6.39166508 13.10092821 3 18 C-0.06884419 20.84804919 -2.05279371 21.36535825 -6.203125 21.29296875 C-7.67265625 21.2784668 -7.67265625 21.2784668 -9.171875 21.26367188 C-10.69554687 21.2259668 -10.69554687 21.2259668 -12.25 21.1875 C-13.28125 21.17396484 -14.3125 21.16042969 -15.375 21.14648438 C-17.91719792 21.11117607 -20.45833223 21.06186036 -23 21 C-23 20.67 -23 20.34 -23 20 C-18.05 20 -13.1 20 -8 20 C-8 19.34 -8 18.68 -8 18 C-8.59538574 18.00523682 -9.19077148 18.01047363 -9.80419922 18.01586914 C-12.49445547 18.03661999 -15.18469489 18.04965407 -17.875 18.0625 C-18.81214844 18.07087891 -19.74929687 18.07925781 -20.71484375 18.08789062 C-22.05869141 18.09272461 -22.05869141 18.09272461 -23.4296875 18.09765625 C-24.67081299 18.10551147 -24.67081299 18.10551147 -25.93701172 18.11352539 C-28 18 -28 18 -30 17 C-30.72693904 15.02111039 -31.39816251 13.02045442 -32 11 C-31.01 10.01 -30.02 9.02 -29 8 C-28.67 8.66 -28.34 9.32 -28 10 C-27.0409375 8.5459375 -27.0409375 8.5459375 -26.0625 7.0625 C-24.33911901 4.94901271 -23.45541933 4.10528083 -20.76953125 3.484375 C-19.21114366 3.37251684 -17.64831394 3.30877976 -16.0859375 3.30078125 C-13.48119828 2.92519151 -12.64751884 1.98856574 -11 0 C-11 0.66 -11 1.32 -11 2 C-10.113125 1.484375 -9.22625 0.96875 -8.3125 0.4375 C-4.66427483 -1.14569205 -3.67497174 -1.19436582 0 0 Z " fill="#B4C5E1" transform="translate(40,22)"/>
<path d="M0 0 C1.8871875 0.0309375 1.8871875 0.0309375 3.8125 0.0625 C3.84988281 0.64257812 3.88726563 1.22265625 3.92578125 1.8203125 C4.02439453 2.99207031 4.02439453 2.99207031 4.125 4.1875 C4.18300781 4.95320313 4.24101562 5.71890625 4.30078125 6.5078125 C4.93853741 9.69172493 6.27493148 12.21820435 7.8125 15.0625 C4.52085171 15.09145225 1.22923601 15.1092823 -2.0625 15.125 C-2.99964844 15.13337891 -3.93679687 15.14175781 -4.90234375 15.15039062 C-6.24619141 15.15522461 -6.24619141 15.15522461 -7.6171875 15.16015625 C-8.44460449 15.16539307 -9.27202148 15.17062988 -10.12451172 15.17602539 C-12.1875 15.0625 -12.1875 15.0625 -14.1875 14.0625 C-14.91443904 12.08361039 -15.58566251 10.08295442 -16.1875 8.0625 C-15.1975 7.0725 -14.2075 6.0825 -13.1875 5.0625 C-12.8575 5.7225 -12.5275 6.3825 -12.1875 7.0625 C-11.424375 6.093125 -10.66125 5.12375 -9.875 4.125 C-7.03813902 0.52141983 -4.49636856 -0.07371096 0 0 Z " fill="#E4A0A4" transform="translate(24.1875,24.9375)"/>
<path d="M0 0 C4.29 0.33 8.58 0.66 13 1 C13 7.93 13 14.86 13 22 C10.72946086 23.13526957 9.14624264 23.19909935 6.625 23.375 C2.93183299 23.73777486 0.70860854 24.29139146 -2 27 C-1.55240545 24.91122542 -1.14236971 23.22690172 0 21.40625 C1.51055567 17.77147541 1.46972784 14.15121294 1.625 10.25 C1.66367187 9.45722656 1.70234375 8.66445312 1.7421875 7.84765625 C1.836108 5.89880584 1.91912822 3.94943549 2 2 C1.34 2 0.68 2 0 2 C0 1.34 0 0.68 0 0 Z " fill="#D7D8D8" transform="translate(15,3)"/>
<path d="M0 0 C2.64 0 5.28 0 8 0 C8 2.64 8 5.28 8 8 C2.25 10 2.25 10 0 10 C0 6.7 0 3.4 0 0 Z " fill="#F7F7F7" transform="translate(18,5)"/>
<path d="M0 0 C8.25 0 16.5 0 25 0 C25 0.66 25 1.32 25 2 C21.95877308 2.22282257 18.9179572 2.42868018 15.875 2.625 C15.0190625 2.68945312 14.163125 2.75390625 13.28125 2.8203125 C8.36144244 3.12306989 4.6307706 2.98895393 0 1 C0 0.67 0 0.34 0 0 Z " fill="#DCDDDD" transform="translate(7,40)"/>
<path d="M0 0 C3.96 0 7.92 0 12 0 C12 0.99 12 1.98 12 3 C8.04 3 4.08 3 0 3 C0 2.01 0 1.02 0 0 Z " fill="#FEFEFE" transform="translate(16,1)"/>
<path d="M0 0 C0.33 0.99 0.66 1.98 1 3 C-3.38235294 7.01715686 -3.38235294 7.01715686 -6.25 6.9375 C-8 6 -8 6 -9 3 C-8.1646875 3.37125 -8.1646875 3.37125 -7.3125 3.75 C-4.75949064 4.28353676 -4.75949064 4.28353676 -2.25 2.0625 C-1.5075 1.381875 -0.765 0.70125 0 0 Z " fill="#404347" transform="translate(41,28)"/>
<path d="M0 0 C0.33 0 0.66 0 1 0 C1 1.65 1 3.3 1 5 C3.97 5.495 3.97 5.495 7 6 C7 6.33 7 6.66 7 7 C0.25 7.125 0.25 7.125 -2 6 C-1.125 1.125 -1.125 1.125 0 0 Z " fill="#F8F8F8" transform="translate(9,34)"/>
</svg>
