<?xml version="1.0" encoding="UTF-8"?>
<svg version="1.1" xmlns="http://www.w3.org/2000/svg" width="53" height="38">
<path d="M0 0 C17.49 0 34.98 0 53 0 C53 12.54 53 25.08 53 38 C35.51 38 18.02 38 0 38 C0 25.46 0 12.92 0 0 Z " fill="#FCFCFC" transform="translate(0,0)"/>
<path d="M0 0 C17.49 0 34.98 0 53 0 C53 12.54 53 25.08 53 38 C35.51 38 18.02 38 0 38 C0 25.46 0 12.92 0 0 Z M26 1 C25.67 1.99 25.34 2.98 25 4 C26.216875 3.979375 27.43375 3.95875 28.6875 3.9375 C31.91977322 3.93175884 34.84934741 4.21233685 38 5 C37.34 5.99 36.68 6.98 36 8 C36 8.99 36 9.98 36 11 C34.02253397 11.73080266 32.01927511 12.39421747 30 13 C29.34 12.67 28.68 12.34 28 12 C28.185625 11.38125 28.37125 10.7625 28.5625 10.125 C29.23686176 7.95839822 29.23686176 7.95839822 28 6 C27.34 6 26.68 6 26 6 C25.80277344 6.78890625 25.60554688 7.5778125 25.40234375 8.390625 C24 11 24 11 21.06640625 12.109375 C19.33197266 12.42648437 19.33197266 12.42648437 17.5625 12.75 C16.40878906 12.97171875 15.25507813 13.1934375 14.06640625 13.421875 C13.05449219 13.61265625 12.04257813 13.8034375 11 14 C10.01 14.33 9.02 14.66 8 15 C7.67 13.35 7.34 11.7 7 10 C6.01 10.495 6.01 10.495 5 11 C5.33 11.763125 5.66 12.52625 6 13.3125 C7.34193451 18.26088352 7.14390323 22.90742452 7 28 C7 28.99 7 29.98 7 31 C14.7996855 36.26893648 22.97932712 35.45322876 32 35.25 C33.55336242 35.22990643 35.1067499 35.2116607 36.66015625 35.1953125 C40.44072979 35.15153679 44.22008511 35.08266974 48 35 C48.11681812 31.45861382 48.187455 27.9177276 48.25 24.375 C48.28351562 23.37597656 48.31703125 22.37695312 48.3515625 21.34765625 C48.43295253 15.202709 47.91352116 11.97405553 44 7 C43.505 4.525 43.505 4.525 43 2 C37.39 1.67 31.78 1.34 26 1 Z " fill="#F0F5FD" transform="translate(0,0)"/>
<path d="M0 0 C0.66 0 1.32 0 2 0 C2.33 1.65 2.66 3.3 3 5 C3.86625 4.649375 4.7325 4.29875 5.625 3.9375 C12.2223524 2.00987852 20.54700336 2.84900112 27 5 C26.67 6.32 26.34 7.64 26 9 C25.34 9 24.68 9 24 9 C24.99 9.33 25.98 9.66 27 10 C27 10.66 27 11.32 27 12 C20.4 12 13.8 12 7 12 C7 12.66 7 13.32 7 14 C13.6 14 20.2 14 27 14 C27 14.99 27 15.98 27 17 C25.68 17.33 24.36 17.66 23 18 C24.32 18 25.64 18 27 18 C26.67 19.65 26.34 21.3 26 23 C19.58904871 25.13698376 11.52059749 24.4638076 5 23 C2.5625 21.4375 2.5625 21.4375 1 20 C1.33 19.34 1.66 18.68 2 18 C2.45296092 11.64801314 2.13431857 6.00277099 0 0 Z " fill="#BED1F1" transform="translate(5,10)"/>
<path d="M0 0 C3.09440988 6.70455473 3.61227636 12.6409091 3 20 C2.67 20.33 2.34 20.66 2 21 C7.92156056 24.4057337 11.91844781 25.52956493 18.6875 25.1875 C20.26161545 25.14565436 21.83584555 25.10792851 23.41015625 25.07421875 C24.18117676 25.05536621 24.95219727 25.03651367 25.74658203 25.01708984 C30.85060858 24.97838108 35.9246125 25.49784152 41 26 C37.50232202 29.49767798 32.55128006 29.04261733 27.80883789 29.11352539 C26.28010153 29.1133694 24.75135856 29.10786067 23.22265625 29.09765625 C22.41130722 29.0962413 21.59995819 29.09482635 20.76402283 29.09336853 C18.19680953 29.08781357 15.62968652 29.07526967 13.0625 29.0625 C11.31185023 29.05747917 9.56119907 29.05291729 7.81054688 29.04882812 C3.54030261 29.03871386 -0.72974876 29.01913005 -5 29 C-5 19.76 -5 10.52 -5 1 C-3 0 -3 0 0 0 Z " fill="#E9EEF6" transform="translate(5,9)"/>
<path d="M0 0 C0.66 0 1.32 0 2 0 C2.38218767 1.65614657 2.71395102 3.32457024 3 5 C2.67 5.33 2.34 5.66 2 6 C4.475 6.495 4.475 6.495 7 7 C7.33 14.26 7.66 21.52 8 29 C4.90625 29.04125 1.8125 29.0825 -1.375 29.125 C-2.83558838 29.15231201 -2.83558838 29.15231201 -4.32568359 29.18017578 C-5.09219238 29.1851709 -5.85870117 29.19016602 -6.6484375 29.1953125 C-7.82672119 29.21102295 -7.82672119 29.21102295 -9.02880859 29.22705078 C-11 29 -11 29 -13 27 C-11.95199219 27.01160156 -10.90398438 27.02320312 -9.82421875 27.03515625 C-8.44531428 27.04453655 -7.06640789 27.0536365 -5.6875 27.0625 C-4.99720703 27.07087891 -4.30691406 27.07925781 -3.59570312 27.08789062 C-0.4516975 27.10307906 1.99420019 27.00193327 5 26 C5.73323796 23.98491642 5.73323796 23.98491642 6 22 C5.01 22.33 4.02 22.66 3 23 C0.66894093 23.12047541 -1.66586142 23.17534303 -4 23.1875 C-5.2375 23.20167969 -6.475 23.21585938 -7.75 23.23046875 C-11 23 -11 23 -14 21 C-7.4 21 -0.8 21 6 21 C6 20.01 6 19.02 6 18 C-0.6 18 -7.2 18 -14 18 C-14 17.34 -14 16.68 -14 16 C-7.4 16 -0.8 16 6 16 C6 15.34 6 14.68 6 14 C-0.6 14 -7.2 14 -14 14 C-12 12 -12 12 -8.0859375 11.8046875 C-6.51550649 11.81799624 -4.94513779 11.84186398 -3.375 11.875 C-2.57320312 11.88402344 -1.77140625 11.89304687 -0.9453125 11.90234375 C1.03658523 11.92593777 3.01832981 11.96180935 5 12 C5.33 11.01 5.66 10.02 6 9 C0.39 8.67 -5.22 8.34 -11 8 C-7 6 -7 6 -4.375 5.6875 C-3.59125 5.460625 -2.8075 5.23375 -2 5 C-0.62533375 2.52363988 -0.62533375 2.52363988 0 0 Z " fill="#808998" transform="translate(26,6)"/>
<path d="M0 0 C5.61 0.33 11.22 0.66 17 1 C17.99 3.97 18.98 6.94 20 10 C19.01 10.33 18.02 10.66 17 11 C17 12.98 17 14.96 17 17 C16.01 17 15.02 17 14 17 C14 15.02 14 13.04 14 11 C11.69 11.33 9.38 11.66 7 12 C7.33 11.34 7.66 10.68 8 10 C8.66 10 9.32 10 10 10 C10.144375 9.38125 10.28875 8.7625 10.4375 8.125 C11 6 11 6 12 4 C10.39602723 3.83147753 8.7918131 3.66525114 7.1875 3.5 C6.29417969 3.4071875 5.40085937 3.314375 4.48046875 3.21875 C1.91694901 2.95607599 1.91694901 2.95607599 -1 3 C-0.67 2.01 -0.34 1.02 0 0 Z " fill="#7C8171" transform="translate(26,1)"/>
<path d="M0 0 C3.13902852 6.80122845 3.33452052 12.56621057 3 20 C-1.18347553 18.60550816 -1.97069655 16.33703159 -3.9921875 12.56640625 C-5.56887393 8.55135592 -5.33888494 5.26995028 -5 1 C-3 0 -3 0 0 0 Z " fill="#DADFE6" transform="translate(5,9)"/>
<path d="M0 0 C0 1.98 0 3.96 0 6 C0.99 6 1.98 6 3 6 C3 4.02 3 2.04 3 0 C4.65 0.33 6.3 0.66 8 1 C8 8.26 8 15.52 8 23 C7.34 22.67 6.68 22.34 6 22 C6.33 17.05 6.66 12.1 7 7 C2.38 7 -2.24 7 -7 7 C-7 5.02 -7 3.04 -7 1 C-4.53721199 -0.231394 -2.7204945 -0.07159196 0 0 Z " fill="#9D9E9E" transform="translate(40,12)"/>
<path d="M0 0 C0.33 0.99 0.66 1.98 1 3 C3.31 3 5.62 3 8 3 C8.33 2.01 8.66 1.02 9 0 C9.33 1.32 9.66 2.64 10 4 C9.01 4 8.02 4 7 4 C7 5.98 7 7.96 7 10 C6.01 10 5.02 10 4 10 C4 8.02 4 6.04 4 4 C1.69 4.33 -0.62 4.66 -3 5 C-2.67 4.34 -2.34 3.68 -2 3 C-1.34 3 -0.68 3 0 3 C0 2.01 0 1.02 0 0 Z " fill="#8C7C7E" transform="translate(36,8)"/>
<path d="M0 0 C0 1.65 0 3.3 0 5 C-2.31 5 -4.62 5 -7 5 C-7 3.68 -7 2.36 -7 1 C-4.53721199 -0.231394 -2.7204945 -0.07159196 0 0 Z " fill="#FAFAFA" transform="translate(40,12)"/>
<path d="M0 0 C0.66 0 1.32 0 2 0 C2 0.66 2 1.32 2 2 C2.99 2.33 3.98 2.66 5 3 C4.67 3.66 4.34 4.32 4 5 C3.34 5 2.68 5 2 5 C2 5.66 2 6.32 2 7 C1.34 7 0.68 7 0 7 C0 6.34 0 5.68 0 5 C-0.99 4.67 -1.98 4.34 -3 4 C-2.67 3.34 -2.34 2.68 -2 2 C-1.34 2 -0.68 2 0 2 C0 1.34 0 0.68 0 0 Z " fill="#A57F81" transform="translate(39,22)"/>
<path d="M0 0 C0.66 0 1.32 0 2 0 C2.33 1.65 2.66 3.3 3 5 C-0.6441774 7.4294516 -2.71241272 7.16179575 -7 7 C-7 6.67 -7 6.34 -7 6 C-6.21625 5.938125 -5.4325 5.87625 -4.625 5.8125 C-3.75875 5.544375 -2.8925 5.27625 -2 5 C-0.62533375 2.52363988 -0.62533375 2.52363988 0 0 Z " fill="#ABADB0" transform="translate(26,6)"/>
<path d="M0 0 C2.31 0 4.62 0 7 0 C7 0.99 7 1.98 7 3 C4.69 3 2.38 3 0 3 C0 2.01 0 1.02 0 0 Z " fill="#FCFCFC" transform="translate(37,8)"/>
<path d="M0 0 C1.98 0 3.96 0 6 0 C6.33 0.99 6.66 1.98 7 3 C6.34 3 5.68 3 5 3 C5 3.66 5 4.32 5 5 C4.01 5 3.02 5 2 5 C2.33 3.68 2.66 2.36 3 1 C2.01 0.67 1.02 0.34 0 0 Z " fill="#B2B8A0" transform="translate(37,2)"/>
<path d="M0 0 C0.99 0 1.98 0 3 0 C3.33 1.65 3.66 3.3 4 5 C2.68 5 1.36 5 0 5 C0 3.35 0 1.7 0 0 Z " fill="#FDFDFD" transform="translate(43,12)"/>
</svg>
