<?xml version="1.0" encoding="UTF-8"?>
<svg version="1.1" xmlns="http://www.w3.org/2000/svg" width="45" height="56">
<path d="M0 0 C14.85 0 29.7 0 45 0 C45 18.48 45 36.96 45 56 C30.15 56 15.3 56 0 56 C0 37.52 0 19.04 0 0 Z " fill="#FEFEFE" transform="translate(0,0)"/>
<path d="M0 0 C0.9075 0.2475 1.815 0.495 2.75 0.75 C3.67854496 3.27359152 3.92340413 4.35080155 2.83203125 6.86328125 C2.20361328 7.95189453 2.20361328 7.95189453 1.5625 9.0625 C0.3610942 11.39271475 0.3610942 11.39271475 -0.25 13.75 C1.28105166 16.97167189 1.28105166 16.97167189 2.703125 18.86328125 C4.7537451 22.55898837 4.45366487 26.67978164 3.75 30.75 C1.875 33.75 1.875 33.75 -0.25 35.75 C-0.91 36.41 -1.57 37.07 -2.25 37.75 C-2.25 38.41 -2.25 39.07 -2.25 39.75 C0.72 39.75 3.69 39.75 6.75 39.75 C6.75 40.74 6.75 41.73 6.75 42.75 C4.11 42.09 1.47 41.43 -1.25 40.75 C-1.25 41.41 -1.25 42.07 -1.25 42.75 C-8.84 43.08 -16.43 43.41 -24.25 43.75 C-24.58 43.09 -24.91 42.43 -25.25 41.75 C-22.61 42.08 -19.97 42.41 -17.25 42.75 C-17.745 41.265 -17.745 41.265 -18.25 39.75 C-17.26 39.09 -16.27 38.43 -15.25 37.75 C-18.26887244 34.26668565 -20.81909529 32.95842856 -25.25 31.75 C-25.25 31.09 -25.25 30.43 -25.25 29.75 C-22.39804778 28.32402389 -19.92538825 28.6179748 -16.75 28.625 C-15.5846875 28.62242188 -14.419375 28.61984375 -13.21875 28.6171875 C-10.25 28.75 -10.25 28.75 -8.25 29.75 C-8.25 30.41 -8.25 31.07 -8.25 31.75 C-6.27463255 31.40213292 -6.27463255 31.40213292 -4.25 30.75 C-2.7716774 27.79335481 -3.18967217 25.00770263 -3.25 21.75 C-4.24 21.42 -5.23 21.09 -6.25 20.75 C-6.9925 21.554375 -7.735 22.35875 -8.5 23.1875 C-12.32317073 26.75 -12.32317073 26.75 -15.25 26.75 C-17.0625 25.625 -17.0625 25.625 -18.25 23.75 C-17.95765672 18.73448559 -15.19212733 15.19530542 -12.4375 11.1875 C-11.99857422 10.52814453 -11.55964844 9.86878906 -11.10742188 9.18945312 C-4.64991009 -0.35768539 -4.64991009 -0.35768539 0 0 Z " fill="#D3D3D3" transform="translate(29.25,3.25)"/>
<path d="M0 0 C0.9075 0.2475 1.815 0.495 2.75 0.75 C3.66885092 3.26685252 3.88832205 4.39367731 2.90234375 6.93359375 C2.50144531 7.67738281 2.10054687 8.42117188 1.6875 9.1875 C-0.13186017 12.81925565 -0.13186017 12.81925565 0.5 16.8125 C0.9125 17.451875 1.325 18.09125 1.75 18.75 C0.76 18.75 -0.23 18.75 -1.25 18.75 C-1.91 19.74 -2.57 20.73 -3.25 21.75 C-4.24 21.42 -5.23 21.09 -6.25 20.75 C-6.9925 21.554375 -7.735 22.35875 -8.5 23.1875 C-12.32317073 26.75 -12.32317073 26.75 -15.25 26.75 C-17.0625 25.625 -17.0625 25.625 -18.25 23.75 C-17.95765672 18.73448559 -15.19212733 15.19530542 -12.4375 11.1875 C-11.99857422 10.52814453 -11.55964844 9.86878906 -11.10742188 9.18945312 C-4.64991009 -0.35768539 -4.64991009 -0.35768539 0 0 Z " fill="#D69A9D" transform="translate(29.25,3.25)"/>
<path d="M0 0 C2.33294775 -0.04241723 4.66702567 -0.04092937 7 0 C7.33 0.33 7.66 0.66 8 1 C9.32 1 10.64 1 12 1 C14.25 2.875 14.25 2.875 16 5 C16 5.66 16 6.32 16 7 C18.97 7 21.94 7 25 7 C25 7.99 25 8.98 25 10 C22.36 9.34 19.72 8.68 17 8 C17 8.66 17 9.32 17 10 C9.41 10.33 1.82 10.66 -6 11 C-6.33 10.34 -6.66 9.68 -7 9 C-4.36 9.33 -1.72 9.66 1 10 C0.67 9.01 0.34 8.02 0 7 C0.99 6.34 1.98 5.68 3 5 C2.505 4.54625 2.01 4.0925 1.5 3.625 C0 2 0 2 0 0 Z " fill="#D4D4D4" transform="translate(11,36)"/>
<path d="M0 0 C2.14285714 7.42857143 2.14285714 7.42857143 3 11 C0.8125 13.0625 0.8125 13.0625 -2 15 C-4.8125 14.75 -4.8125 14.75 -7 14 C-7.8125 12 -7.8125 12 -8 9 C-3.77067669 0 -3.77067669 0 0 0 Z " fill="#EEEEEE" transform="translate(19,15)"/>
<path d="M0 0 C1.18851563 0.00902344 2.37703125 0.01804687 3.6015625 0.02734375 C4.51679688 0.03894531 5.43203125 0.05054687 6.375 0.0625 C6.478125 0.701875 6.58125 1.34125 6.6875 2 C7.0278125 3.0209375 7.0278125 3.0209375 7.375 4.0625 C8.365 4.3925 9.355 4.7225 10.375 5.0625 C8.395 5.3925 6.415 5.7225 4.375 6.0625 C4.375 5.7325 4.375 5.4025 4.375 5.0625 C2.828125 5.124375 2.828125 5.124375 1.25 5.1875 C-2.49329627 5.06674851 -5.16234547 4.41377982 -8.625 3.0625 C-8.625 2.4025 -8.625 1.7425 -8.625 1.0625 C-5.74084117 -0.37957941 -3.20778472 -0.03144887 0 0 Z " fill="#ABABAB" transform="translate(12.625,31.9375)"/>
<path d="M0 0 C1.3921875 0.3403125 1.3921875 0.3403125 2.8125 0.6875 C3.5 2.3125 3.5 2.3125 3.8125 4.6875 C2.375 7.9375 2.375 7.9375 0.8125 10.6875 C0.750625 10.06875 0.68875 9.45 0.625 8.8125 C-0.0227037 6.45025746 -0.0227037 6.45025746 -2.5625 5.3125 C-3.42875 5.10625 -4.295 4.9 -5.1875 4.6875 C-6.1775 5.3475 -7.1675 6.0075 -8.1875 6.6875 C-4.97117876 -0.48737047 -4.97117876 -0.48737047 0 0 Z " fill="#A1AA7F" transform="translate(29.1875,3.3125)"/>
<path d="M0 0 C0.33 0.66 0.66 1.32 1 2 C0.67 2.99 0.34 3.98 0 5 C4.10223585 6.01540112 4.10223585 6.01540112 8 5 C6.85331791 8.44004627 6.12056696 9.26635169 3 11 C0.25 10.6875 0.25 10.6875 -2 10 C-3.06351675 6.61608307 -3.21442982 5.4195366 -1.5625 2.1875 C-1.046875 1.465625 -0.53125 0.74375 0 0 Z " fill="#A0A981" transform="translate(14,19)"/>
<path d="M0 0 C2.4375 0.8125 2.4375 0.8125 5 2 C5.33 2.99 5.66 3.98 6 5 C5.01 5.99 4.02 6.98 3 8 C0.69 7.34 -1.62 6.68 -4 6 C-1.125 1.125 -1.125 1.125 0 0 Z " fill="#FCFCFC" transform="translate(24,7)"/>
<path d="M0 0 C2.31 0 4.62 0 7 0 C6.67 0.99 6.34 1.98 6 3 C-0.93 3 -7.86 3 -15 3 C-15 2.67 -15 2.34 -15 2 C-10.05 2 -5.1 2 0 2 C0 1.34 0 0.68 0 0 Z " fill="#CFCFCF" transform="translate(28,44)"/>
<path d="M0 0 C0.33 0.99 0.66 1.98 1 3 C-1.97 3 -4.94 3 -8 3 C-7.67 2.01 -7.34 1.02 -7 0 C-4.3333581 -1.33332095 -2.83319697 -0.67102033 0 0 Z " fill="#CDCDCD" transform="translate(11,43)"/>
<path d="M0 0 C0.33 0.66 0.66 1.32 1 2 C2.97888961 2.72693904 4.97954558 3.39816251 7 4 C4.99967627 5.00016187 3.16874252 5.49396008 1 6 C0.67 7.65 0.34 9.3 0 11 C-0.33 11 -0.66 11 -1 11 C-1.59732819 8.23735711 -2 5.83967231 -2 3 C-1.34 2.01 -0.68 1.02 0 0 Z " fill="#9E9293" transform="translate(20,10)"/>
</svg>
