<?xml version="1.0" encoding="UTF-8"?>
<svg version="1.1" xmlns="http://www.w3.org/2000/svg" width="58" height="52">
<path d="M0 0 C19.14 0 38.28 0 58 0 C58 17.16 58 34.32 58 52 C38.86 52 19.72 52 0 52 C0 34.84 0 17.68 0 0 Z " fill="#EDF3FB" transform="translate(0,0)"/>
<path d="M0 0 C0.92425781 -0.05349609 1.84851563 -0.10699219 2.80078125 -0.16210938 C9.41715023 -0.25203141 9.41715023 -0.25203141 12.4921875 2.41601562 C16.5 7.5574934 16.5 7.5574934 16.5 11.5625 C15.5 13.6875 15.5 13.6875 13.5 15.6875 C13.48086064 18.25608485 13.48086064 18.25608485 13.875 21.1875 C14.44280932 26.71863082 14.61061948 32.13194408 14.5 37.6875 C9.75 38.8125 9.75 38.8125 7.5 37.6875 C7.5 33.7275 7.5 29.7675 7.5 25.6875 C6.84 25.6875 6.18 25.6875 5.5 25.6875 C5.5 25.0275 5.5 24.3675 5.5 23.6875 C3.52 23.6875 1.54 23.6875 -0.5 23.6875 C-0.83 21.0475 -1.16 18.4075 -1.5 15.6875 C-5.13 14.3675 -8.76 13.0475 -12.5 11.6875 C-12.5 11.0275 -12.5 10.3675 -12.5 9.6875 C-13.49 9.6875 -14.48 9.6875 -15.5 9.6875 C-15.5 10.3475 -15.5 11.0075 -15.5 11.6875 C-16.16 11.6875 -16.82 11.6875 -17.5 11.6875 C-18.9783226 8.73085481 -18.56032783 5.94520263 -18.5 2.6875 C-17.84 2.3575 -17.18 2.0275 -16.5 1.6875 C-16.5 2.3475 -16.5 3.0075 -16.5 3.6875 C-15.7265625 3.20667969 -14.953125 2.72585937 -14.15625 2.23046875 C-9.34589785 0.20045903 -5.17104436 0.06130248 0 0 Z " fill="#FAFAFA" transform="translate(27.5,10.3125)"/>
<path d="M0 0 C0.92425781 -0.05349609 1.84851563 -0.10699219 2.80078125 -0.16210938 C9.41715023 -0.25203141 9.41715023 -0.25203141 12.4921875 2.41601562 C16.5 7.5574934 16.5 7.5574934 16.5 11.5625 C15.5 13.6875 15.5 13.6875 13.5 15.6875 C13.33322718 19.27093976 13.33322718 19.27093976 13.5 22.6875 C11.39172945 19.52509418 11.16182535 18.18092531 10.875 14.5 C10.80023438 13.59894531 10.72546875 12.69789062 10.6484375 11.76953125 C10.57496094 10.73892578 10.57496094 10.73892578 10.5 9.6875 C9.84 11.0075 9.18 12.3275 8.5 13.6875 C8.04625 12.615 7.5925 11.5425 7.125 10.4375 C6.58347537 9.18743846 6.04181721 7.93743475 5.5 6.6875 C5.17 5.90375 4.84 5.12 4.5 4.3125 C3.52546436 2.33919931 3.52546436 2.33919931 0.5 1.6875 C0.5 2.3475 0.5 3.0075 0.5 3.6875 C-2.14 3.6875 -4.78 3.6875 -7.5 3.6875 C-7.83 5.6675 -8.16 7.6475 -8.5 9.6875 C-7.1696875 9.8421875 -7.1696875 9.8421875 -5.8125 10 C-2.39898744 10.70846487 -0.26076472 11.57632698 2.5 13.6875 C2.5 14.6775 2.5 15.6675 2.5 16.6875 C3.180625 17.6775 3.86125 18.6675 4.5625 19.6875 C5.201875 20.6775 5.84125 21.6675 6.5 22.6875 C6.17 23.6775 5.84 24.6675 5.5 25.6875 C5.5 25.0275 5.5 24.3675 5.5 23.6875 C3.52 23.6875 1.54 23.6875 -0.5 23.6875 C-0.83 21.0475 -1.16 18.4075 -1.5 15.6875 C-5.13 14.3675 -8.76 13.0475 -12.5 11.6875 C-12.5 11.0275 -12.5 10.3675 -12.5 9.6875 C-13.49 9.6875 -14.48 9.6875 -15.5 9.6875 C-15.5 10.3475 -15.5 11.0075 -15.5 11.6875 C-16.16 11.6875 -16.82 11.6875 -17.5 11.6875 C-18.9783226 8.73085481 -18.56032783 5.94520263 -18.5 2.6875 C-17.84 2.3575 -17.18 2.0275 -16.5 1.6875 C-16.5 2.3475 -16.5 3.0075 -16.5 3.6875 C-15.7265625 3.20667969 -14.953125 2.72585937 -14.15625 2.23046875 C-9.34589785 0.20045903 -5.17104436 0.06130248 0 0 Z " fill="#8F97A4" transform="translate(27.5,10.3125)"/>
<path d="M0 0 C1.45742463 -0.08096803 2.91612807 -0.13917774 4.375 -0.1875 C5.18710937 -0.22230469 5.99921875 -0.25710938 6.8359375 -0.29296875 C7.55007812 -0.19628906 8.26421875 -0.09960938 9 0 C11.4294516 3.6441774 11.16179575 5.71241272 11 10 C7 8.66666667 3 7.33333333 -1 6 C-0.67 4.02 -0.34 2.04 0 0 Z " fill="#BBCEED" transform="translate(20,14)"/>
<path d="M0 0 C0.33 0.99 0.66 1.98 1 3 C2.051875 3.103125 3.10375 3.20625 4.1875 3.3125 C7.89784302 3.98157825 10.05852127 4.6824713 13 7 C13 7.99 13 8.98 13 10 C13.680625 10.99 14.36125 11.98 15.0625 13 C16.0215625 14.485 16.0215625 14.485 17 16 C16.67 16.99 16.34 17.98 16 19 C16 18.34 16 17.68 16 17 C14.02 17 12.04 17 10 17 C9.67 14.36 9.34 11.72 9 9 C8.43410156 8.85304688 7.86820313 8.70609375 7.28515625 8.5546875 C5.02588015 7.86380166 3.04881905 7.18251078 1 6 C0 2.8125 0 2.8125 0 0 Z " fill="#9FA1A6" transform="translate(17,17)"/>
<path d="M0 0 C0.33 0.66 0.66 1.32 1 2 C2.32 1.34 3.64 0.68 5 0 C6.43088528 2.86177057 5.59991697 4.93375773 5 8 C4.01 8 3.02 8 2 8 C2 8.66 2 9.32 2 10 C1.34 10 0.68 10 0 10 C-1.49106457 7.01787087 -1.11941467 4.28390342 -1 1 C-0.67 0.67 -0.34 0.34 0 0 Z " fill="#BABEC4" transform="translate(10,12)"/>
<path d="M0 0 C3.80881639 1.44472346 5.29742886 3.32603071 7 7 C6.67 7.99 6.34 8.98 6 10 C6 9.34 6 8.68 6 8 C4.02 8 2.04 8 0 8 C0 5.36 0 2.72 0 0 Z " fill="#AE898B" transform="translate(27,26)"/>
<path d="M0 0 C0.99 0 1.98 0 3 0 C4.46726798 3.81489674 3.43336419 6.29011622 2 10 C1.01 10 0.02 10 -1 10 C-1.125 2.25 -1.125 2.25 0 0 Z " fill="#8D9870" transform="translate(16,12)"/>
<path d="M0 0 C3.63 0 7.26 0 11 0 C11 0.99 11 1.98 11 3 C8.03 3 5.06 3 2 3 C2 2.34 2 1.68 2 1 C1.34 0.67 0.68 0.34 0 0 Z " fill="#A7A8AA" transform="translate(17,11)"/>
<path d="M0 0 C2.03144641 0.93446535 4.03533587 1.93224776 6 3 C4.125 4.0625 4.125 4.0625 2 5 C1.34 4.67 0.68 4.34 0 4 C0 3.34 0 2.68 0 2 C-0.66 1.67 -1.32 1.34 -2 1 C-1.34 0.67 -0.68 0.34 0 0 Z " fill="#ACAFB3" transform="translate(24,21)"/>
</svg>
