<?xml version="1.0" encoding="UTF-8"?>
<svg version="1.1" xmlns="http://www.w3.org/2000/svg" width="48" height="35">
<path d="M0 0 C15.84 0 31.68 0 48 0 C48 11.55 48 23.1 48 35 C32.16 35 16.32 35 0 35 C0 23.45 0 11.9 0 0 Z " fill="#FCFCFC" transform="translate(0,0)"/>
<path d="M0 0 C15.84 0 31.68 0 48 0 C48 11.55 48 23.1 48 35 C32.16 35 16.32 35 0 35 C0 23.45 0 11.9 0 0 Z M6 6 C5.23841683 8.61820409 5.23841683 8.61820409 5.3359375 11.5 C5.32949219 12.551875 5.32304688 13.60375 5.31640625 14.6875 C5.33574219 15.780625 5.35507813 16.87375 5.375 18 C5.35566406 19.093125 5.33632812 20.18625 5.31640625 21.3125 C5.32285156 22.364375 5.32929687 23.41625 5.3359375 24.5 C5.34157715 25.4590625 5.3472168 26.418125 5.35302734 27.40625 C5.82410655 30.18213934 5.82410655 30.18213934 8.13916016 32.30834961 C13.36628727 35.39921527 19.07680875 34.61356199 25 34.5625 C26.90652344 34.59827148 26.90652344 34.59827148 28.8515625 34.63476562 C35.8920234 34.64538918 35.8920234 34.64538918 42.3359375 32.15234375 C44.81883681 27.44882323 44.72791763 23.241938 44.625 18 C44.64433594 17.01515625 44.66367187 16.0303125 44.68359375 15.015625 C44.65426495 10.67496328 44.37947819 7.71887066 42.3359375 3.84765625 C36.81770541 0.79130522 31.19114344 1.32133757 25 1.4375 C23.72898437 1.42654297 22.45796875 1.41558594 21.1484375 1.40429688 C12.67990479 1.26901124 12.67990479 1.26901124 6 6 Z " fill="#FEFEFE" transform="translate(0,0)"/>
<path d="M0 0 C1.27552734 -0.02384766 2.55105469 -0.04769531 3.86523438 -0.07226562 C12.94145141 -0.05798736 12.94145141 -0.05798736 17.421875 2.421875 C19.85486474 7.07931251 19.60054211 11.20835078 19.375 16.375 C19.35244141 17.35404297 19.32988281 18.33308594 19.30664062 19.34179688 C19.24789727 21.75027455 19.16582129 24.15559078 19.0625 26.5625 C18.7325 26.5625 18.4025 26.5625 18.0625 26.5625 C17.7325 19.9625 17.4025 13.3625 17.0625 6.5625 C12.41156895 9.35305863 8.70496633 12.36033072 4.66015625 15.91796875 C1.52330898 17.90385251 -0.29515795 17.70660357 -3.9375 17.5625 C-6.78670053 19.44019142 -6.78670053 19.44019142 -8.9375 21.5625 C-8.6075 20.985 -8.2775 20.4075 -7.9375 19.8125 C-6.66674102 17.36366138 -6.66674102 17.36366138 -6.9375 13.5625 C-9.36459734 11.0903338 -9.36459734 11.0903338 -12.4375 8.8125 C-13.4584375 8.01328125 -14.479375 7.2140625 -15.53125 6.390625 C-16.3253125 5.78734375 -17.119375 5.1840625 -17.9375 4.5625 C-13.10042041 -1.36290409 -7.11893114 -0.06096818 0 0 Z " fill="#ADBCD6" transform="translate(24.9375,1.4375)"/>
<path d="M0 0 C0.66 0.33 1.32 0.66 2 1 C2.31418361 4.39327262 2.5685962 7.78851035 2.8125 11.1875 C2.90208984 12.14720703 2.99167969 13.10691406 3.08398438 14.09570312 C3.14521484 15.02705078 3.20644531 15.95839844 3.26953125 16.91796875 C3.33760986 17.77156982 3.40568848 18.6251709 3.47583008 19.50463867 C2.75499153 23.28488025 1.00674559 24.69481146 -2 27 C-5.10620117 27.59936523 -5.10620117 27.59936523 -8.54296875 27.55859375 C-10.40018555 27.54795898 -10.40018555 27.54795898 -12.29492188 27.53710938 C-13.57947266 27.50423828 -14.86402344 27.47136719 -16.1875 27.4375 C-17.48365234 27.43169922 -18.77980469 27.42589844 -20.11523438 27.41992188 C-29.70527447 27.29472553 -29.70527447 27.29472553 -32 25 C-21.77 25 -11.54 25 -1 25 C-3.97 21.37 -6.94 17.74 -10 14 C-10.66 12.68 -11.32 11.36 -12 10 C-10.37744772 8.51814875 -8.75188112 7.03959744 -7.125 5.5625 C-6.22007813 4.73878906 -5.31515625 3.91507813 -4.3828125 3.06640625 C-2 1 -2 1 0 0 Z " fill="#E1E1E1" transform="translate(41,7)"/>
<path d="M0 0 C4.03224571 1.50952243 6.63914056 3.18845843 9.8125 6.125 C10.99779297 7.21167969 10.99779297 7.21167969 12.20703125 8.3203125 C12.79871094 8.87460938 13.39039063 9.42890625 14 10 C13.69835938 10.59554688 13.39671875 11.19109375 13.0859375 11.8046875 C12.21958351 13.55609377 11.41193859 15.3365032 10.625 17.125 C8.86788094 20.23374911 8.10046801 20.59978864 5 22 C3.73195434 24.0335948 3.73195434 24.0335948 3 26 C2.01 25.34 1.02 24.68 0 24 C-0.34057617 21.56982422 -0.34057617 21.56982422 -0.29296875 18.5546875 C-0.28330078 17.47832031 -0.27363281 16.40195312 -0.26367188 15.29296875 C-0.23853516 14.16503906 -0.21339844 13.03710938 -0.1875 11.875 C-0.17396484 10.73933594 -0.16042969 9.60367187 -0.14648438 8.43359375 C-0.11104319 5.62192613 -0.06163517 2.81119583 0 0 Z " fill="#E7E7E7" transform="translate(6,6)"/>
</svg>
