<?xml version="1.0" encoding="UTF-8"?>
<svg version="1.1" xmlns="http://www.w3.org/2000/svg" width="52" height="62">
<path d="M0 0 C17.16 0 34.32 0 52 0 C52 20.46 52 40.92 52 62 C34.84 62 17.68 62 0 62 C0 41.54 0 21.08 0 0 Z " fill="#F6F9FB" transform="translate(0,0)"/>
<path d="M0 0 C4.91688436 2.22651367 7.2058451 5.11254483 9.296875 9.94140625 C11.3454781 15.93926089 9.81242705 19.76975659 7.125 25.25 C5.52906492 28.28767354 3.90418691 31.14371964 2 34 C3.32 34.66 4.64 35.32 6 36 C5.071875 35.95875 4.14375 35.9175 3.1875 35.875 C-0.15809719 35.72863661 -0.15809719 35.72863661 -3 38 C-6.0625 37.8125 -6.0625 37.8125 -9 37 C-9.66 36.01 -10.32 35.02 -11 34 C-13.05925139 33.27617533 -13.05925139 33.27617533 -15 33 C-15.226875 33.639375 -15.45375 34.27875 -15.6875 34.9375 C-17 37 -17 37 -19.5 37.8125 C-22 38 -22 38 -24 37 C-24 36.34 -24 35.68 -24 35 C-25.32 34.67 -26.64 34.34 -28 34 C-28 33.01 -28 32.02 -28 31 C-28.515625 29.9275 -29.03125 28.855 -29.5625 27.75 C-31.28462335 23.84432311 -31.23145373 21.15615635 -30 17 C-27.41214998 13.59882568 -26.07636261 12.16884119 -21.8125 11.5 C-20.884375 11.335 -19.95625 11.17 -19 11 C-18.27095914 9.35965807 -17.61344757 7.68698082 -17 6 C-11.71087319 0.59066576 -7.39375248 -0.86031859 0 0 Z " fill="#E7E7E7" transform="translate(37,10)"/>
<path d="M0 0 C3.37021602 2.0970233 5.89129539 4.11953387 7 8 C7 12.58037182 6.47357873 14.45711706 3.4375 17.9375 C-0.44256891 20.74495371 -3.31927488 20.74297224 -8 20 C-10.69105198 17.82425584 -12.45532928 16.08934144 -14 13 C-14.41204834 8.36445612 -13.87454146 5.69583902 -11 2 C-7.57905881 -0.56570589 -4.15226516 -0.43708054 0 0 Z " fill="#DD9B9E" transform="translate(36,14)"/>
<path d="M0 0 C0 3 0 3 -1 5 C-1.22622081 6.70363822 -1.40888473 8.41328701 -1.5625 10.125 C-1.64628906 11.03507812 -1.73007812 11.94515625 -1.81640625 12.8828125 C-1.87699219 13.58148438 -1.93757813 14.28015625 -2 15 C-2.99 15 -3.98 15 -5 15 C-5 15.66 -5 16.32 -5 17 C-3.68 16.67 -2.36 16.34 -1 16 C0.00533667 17.62170379 1.00411907 19.24747237 2 20.875 C2.556875 21.77992187 3.11375 22.68484375 3.6875 23.6171875 C5 26 5 26 5 28 C3.68 28 2.36 28 1 28 C0.773125 28.639375 0.54625 29.27875 0.3125 29.9375 C-1 32 -1 32 -3.5 32.8125 C-6 33 -6 33 -8 32 C-8 31.34 -8 30.68 -8 30 C-9.32 29.67 -10.64 29.34 -12 29 C-12 28.01 -12 27.02 -12 26 C-12.515625 24.9275 -13.03125 23.855 -13.5625 22.75 C-15.28462335 18.84432311 -15.23145373 16.15615635 -14 12 C-11.41214998 8.59882568 -10.07636261 7.16884119 -5.8125 6.5 C-4.4203125 6.2525 -4.4203125 6.2525 -3 6 C-1.61141128 3.57114212 -1.61141128 3.57114212 -1 1 C-0.67 0.67 -0.34 0.34 0 0 Z " fill="#D7D7D7" transform="translate(21,15)"/>
<path d="M0 0 C0 3 0 3 -1 5 C-1.22622081 6.70363822 -1.40888473 8.41328701 -1.5625 10.125 C-1.64628906 11.03507812 -1.73007812 11.94515625 -1.81640625 12.8828125 C-1.87699219 13.58148438 -1.93757813 14.28015625 -2 15 C-2.99 15 -3.98 15 -5 15 C-5 15.66 -5 16.32 -5 17 C-3.68 16.67 -2.36 16.34 -1 16 C-0.34 17.98 0.32 19.96 1 22 C-2 24 -2 24 -5 23.8125 C-9.25764192 22.65938865 -9.25764192 22.65938865 -11 20 C-12 17.125 -12 17.125 -12 14 C-9.8125 11.125 -9.8125 11.125 -7 9 C-5.68 9 -4.36 9 -3 9 C-3 8.34 -3 7.68 -3 7 C-4.98 7.33 -6.96 7.66 -9 8 C-8.34 7.34 -7.68 6.68 -7 6 C-5.68 6 -4.36 6 -3 6 C-2.690625 5.195625 -2.38125 4.39125 -2.0625 3.5625 C-1 1 -1 1 0 0 Z " fill="#A2ADC0" transform="translate(21,15)"/>
<path d="M0 0 C1.98 0.495 1.98 0.495 4 1 C3.67 2.65 3.34 4.3 3 6 C1.68 5.67 0.36 5.34 -1 5 C-0.67 3.35 -0.34 1.7 0 0 Z " fill="#FAFAFA" transform="translate(31,21)"/>
</svg>
